<svg width="22" height="22" viewBox="0 0 22 22" fill="none" xmlns="http://www.w3.org/2000/svg">
<path d="M11 0C4.9476 0 0 4.9476 0 11C0 17.1004 4.9476 22 11 22C17.0524 22 22 17.0524 22 11C22 4.9476 17.1004 0 11 0Z" fill="#465500"/>
<path d="M12.6813 17.0045C12.6813 17.9172 11.9127 18.6857 11.0001 18.6857C10.0874 18.6857 9.31885 17.9172 9.31885 17.0045V9.7032C9.31885 8.79053 10.0874 8.02197 11.0001 8.02197C11.9127 8.02197 12.6813 8.79053 12.6813 9.7032V17.0045Z" fill="white"/>
<path d="M10.9996 6.62893C12.0077 6.62893 12.825 5.8117 12.825 4.8036C12.825 3.7955 12.0077 2.97827 10.9996 2.97827C9.99154 2.97827 9.17432 3.7955 9.17432 4.8036C9.17432 5.8117 9.99154 6.62893 10.9996 6.62893Z" fill="white"/>
</svg>
