<svg width="15" height="15" viewBox="0 0 15 15" fill="none" xmlns="http://www.w3.org/2000/svg">
<g clip-path="url(#clip0)">
<path d="M3.49487 13.7425C3.52995 14.4486 4.10848 15.0001 4.81675 15.0001H10.1828C10.8911 15.0001 11.4697 14.4486 11.5047 13.7425L12.2777 4.85303H2.72192L3.49487 13.7425ZM8.82334 7.05891H9.70569V11.9119H8.82334V7.05891ZM7.05863 7.05891H7.94098V11.9119H7.05863V7.05891ZM5.29392 7.05891H6.17628V11.9119H5.29392V7.05891Z" fill="#B0B0B0"/>
<path d="M9.70583 2.20588V1.32353C9.70583 0.593765 9.11212 0 8.3823 0H6.61759C5.88783 0 5.29406 0.593765 5.29406 1.32353V2.20588H1.76465V3.97059H13.2352V2.20588H9.70583ZM6.17641 2.20588V1.32353C6.17641 1.08026 6.37435 0.882353 6.61759 0.882353H8.3823C8.62559 0.882353 8.82347 1.08026 8.82347 1.32353V2.20588H6.17641Z" fill="#B0B0B0"/>
</g>
<defs>
<clipPath id="clip0">
<rect width="15" height="15" fill="white"/>
</clipPath>
</defs>
</svg>
