<svg width="41" height="60" viewBox="0 0 41 60" fill="none" xmlns="http://www.w3.org/2000/svg">
<path d="M9.24609 19.0793L9.85483 28.3414C11.1 27.6396 12.4764 27.2691 13.9074 27.2691C16.4709 27.2691 18.8595 28.4569 20.6332 30.6137L20.6791 30.6695C21.7633 31.9879 23.1737 32.7137 24.651 32.7137C26.1284 32.7137 27.5387 31.988 28.6225 30.6701L28.6705 30.6117C30.4426 28.4568 32.8312 27.2689 35.3948 27.2689C36.8342 27.2689 38.2185 27.6435 39.4697 28.3538L40.0794 19.0793H9.24609Z" fill="black"/>
<path d="M5.43838 15.513H17.5307C16.1485 12.3064 12.9603 10.061 9.24664 10.061C4.26608 10.061 0.228516 14.0986 0.228516 19.0792C0.228516 23.002 2.73407 26.3382 6.23149 27.579L5.43838 15.513Z" fill="black"/>
<path d="M35.3955 30.8352C33.9182 30.8352 32.5078 31.5609 31.424 32.8788L31.3785 32.9341C29.6039 35.0921 27.2153 36.2798 24.6517 36.2798C22.0881 36.2798 19.6995 35.092 17.9259 32.9352L17.8796 32.8791C16.7957 31.5609 15.3853 30.8352 13.9079 30.8352C12.5206 30.8352 11.1924 31.4753 10.1382 32.6447L11.9362 60H37.3901L39.1865 32.6697C38.1278 31.4842 36.7917 30.8352 35.3955 30.8352Z" fill="black"/>
<path d="M21.3148 15.5132H29.9839C32.0551 13.6007 33.6472 10.4801 33.6472 5.4022C29.7257 5.4022 26.9725 6.35233 25.0403 7.73872C24.6543 5.3921 23.3781 2.77302 20.6051 0C17.5231 3.08196 16.2899 5.97385 16.0732 8.51281C18.5663 10.129 20.4534 12.603 21.3148 15.5132Z" fill="black"/>
</svg>
