<svg class="imgIcon" width="60" height="60" viewBox="0 0 60 60" fill="none" xmlns="http://www.w3.org/2000/svg">
<path d="M20 12.5C20.0007 11.8372 20.2644 11.2017 20.7331 10.7331C21.2017 10.2644 21.8372 10.0007 22.5 10H27.5C29.4884 9.99777 31.3948 9.20687 32.8008 7.80083C34.2069 6.3948 34.9978 4.48844 35 2.5V0H30V2.5C29.9992 3.16281 29.7356 3.79827 29.2669 4.26694C28.7983 4.73562 28.1628 4.99926 27.5 5H22.5C20.5116 5.00223 18.6052 5.79313 17.1992 7.19917C15.7931 8.6052 15.0022 10.5116 15 12.5V15H20V12.5Z" fill="black"/>
<path d="M35 15H40V12.5C40.0007 11.8372 40.2644 11.2017 40.7331 10.7331C41.2017 10.2644 41.8372 10.0007 42.5 10H47.5C49.4884 9.99777 51.3948 9.20687 52.8008 7.80083C54.2069 6.3948 54.9978 4.48844 55 2.5V0H50V2.5C49.9992 3.16281 49.7356 3.79827 49.2669 4.26694C48.7983 4.73562 48.1628 4.99926 47.5 5H42.5C40.5116 5.00223 38.6052 5.79313 37.1992 7.19917C35.7931 8.6052 35.0022 10.5116 35 12.5V15Z" fill="black"/>
<path d="M0 54.9998H60V59.9997H0V54.9998Z" fill="black"/>
<path d="M33.3977 30.2132L34.8717 25.7904C35.0424 25.2844 35.0454 24.7368 34.8803 24.2289C34.7152 23.7211 34.3908 23.28 33.9552 22.971C33.8388 22.8233 33.6903 22.704 33.5209 22.6223C33.3515 22.5407 33.1657 22.4988 32.9777 22.4998H27.0227C26.8346 22.4988 26.6488 22.5407 26.4794 22.6223C26.31 22.704 26.1615 22.8233 26.0452 22.971C25.6096 23.28 25.2851 23.7211 25.12 24.2289C24.9549 24.7368 24.9579 25.2844 25.1286 25.7904L26.6027 30.2132C20.8086 30.9439 15.3963 33.4961 11.1465 37.5016C6.89671 41.5071 4.02901 46.759 2.95703 52.4998H57.0433C55.9713 46.759 53.1036 41.5071 48.8538 37.5016C44.604 33.4961 39.1917 30.9439 33.3977 30.2132ZM40.0002 44.9998C39.5057 44.9998 39.0224 44.8532 38.6112 44.5785C38.2001 44.3037 37.8797 43.9133 37.6905 43.4565C37.5012 42.9997 37.4517 42.497 37.5482 42.012C37.6447 41.5271 37.8828 41.0816 38.2324 40.732C38.582 40.3824 39.0275 40.1443 39.5124 40.0478C39.9974 39.9513 40.5001 40.0009 40.9569 40.1901C41.4137 40.3793 41.8041 40.6997 42.0788 41.1108C42.3535 41.522 42.5002 42.0053 42.5002 42.4998C42.5002 43.1628 42.2368 43.7987 41.7679 44.2675C41.2991 44.7364 40.6632 44.9998 40.0002 44.9998Z" fill="black"/>
</svg>
