<svg class="imgIcon" width="60" height="50" viewBox="0 0 60 50" fill="none" xmlns="http://www.w3.org/2000/svg">
    <path d="M57.658 29.5899C59.109 28.3739 60 26.9427 60 24.9583C60 22.976 59.1098 21.5419 57.6632 20.3305C56.9387 19.7262 56.8237 18.7015 57.3923 17.9502C58.5089 16.4761 59.0577 14.9216 58.6087 13.0093C58.2114 11.3132 57.0679 9.88161 55.3928 9.0415C54.4345 8.56372 54.0359 7.55497 54.4383 6.65615C55.5543 4.19239 54.7385 2.11806 52.9702 1.06044C51.2262 0.0154804 44.5337 -2.1055 31.7032 14.3804C30.8855 15.432 29.1146 15.432 28.2969 14.3804C15.465 -2.10573 8.77512 0.0178242 7.02973 1.06032C5.29488 2.09849 4.43461 4.13638 5.55527 6.64185C5.96414 7.55486 5.56547 8.56349 4.5293 9.08029C2.93355 9.88079 1.78992 11.3129 1.39137 13.0091C0.937266 14.9431 1.50516 16.4905 2.60508 17.9467C3.17613 18.7013 3.06117 19.7259 2.34187 20.3263C0.890977 21.5425 0 22.9737 0 24.9581C0 26.8977 0.881602 28.3668 2.33684 29.5859C3.06129 30.1902 3.17625 31.2149 2.60766 31.9662C1.49109 33.4403 0.942305 34.9948 1.39125 36.907C1.78992 38.6032 2.93344 40.0355 4.60711 40.8749C5.56535 41.3527 5.96402 42.3614 5.5616 43.2602C4.45699 45.7405 5.2568 47.7949 7.02973 48.8559C13.4514 52.6959 23.6617 41.4918 28.2968 35.5361C29.1145 34.4845 30.8854 34.4845 31.7031 35.5361C44.5362 52.024 51.2261 49.8992 52.9702 48.8559C54.7236 47.8074 55.5601 45.7342 54.4446 43.2744C54.0357 42.3614 54.4344 41.3528 55.4719 40.8359C57.0676 40.0348 58.2113 38.6032 58.6086 36.907C59.0626 34.9731 58.4947 33.4256 57.3948 31.9695C56.8237 31.2149 56.9387 30.1902 57.658 29.5899ZM42.0971 26.9207C43.1805 26.9207 44.0597 27.7991 44.0597 28.8832C44.0597 29.9673 43.1807 30.8458 42.0971 30.8458C38.2692 30.8458 36.2007 29.5329 34.5384 28.4775C33.1151 27.5735 32.0866 26.9207 30 26.9207C27.9134 26.9207 26.8849 27.5735 25.4616 28.4775C23.7993 29.5328 21.7307 30.8458 17.9029 30.8458C16.8195 30.8458 15.9403 29.9673 15.9403 28.8832C15.9403 27.7991 16.8193 26.9207 17.9029 26.9207C20.7682 26.9207 22.0281 25.9996 23.6846 24.9581C22.0338 23.9203 20.7722 22.9956 17.9029 22.9956C16.8195 22.9956 15.9403 22.1172 15.9403 21.0331C15.9403 19.949 16.8193 19.0705 17.9029 19.0705C21.7308 19.0705 23.7993 20.3834 25.4616 21.4388C26.8849 22.3427 27.9134 22.9956 30 22.9956C32.0866 22.9956 33.1151 22.3427 34.5384 21.4388C36.2007 20.3835 38.2693 19.0705 42.0971 19.0705C43.1805 19.0705 44.0597 19.949 44.0597 21.0331C44.0597 22.1172 43.1807 22.9956 42.0971 22.9956C39.2317 22.9956 37.9719 23.9167 36.3153 24.9581C37.9662 25.9959 39.2278 26.9207 42.0971 26.9207Z"
          fill="black"/>
</svg>
