<svg class="imgIcon" width="60" height="60" viewBox="0 0 60 60" fill="none" xmlns="http://www.w3.org/2000/svg">
<g clip-path="url(#clip0)">
<path d="M59.7632 38.409C54.0955 20.1739 39.8271 5.90536 21.5869 0.236185C18.7915 -0.614245 15.9364 1.03576 15.1109 3.72556C14.2173 6.45837 15.6741 9.36263 18.3395 10.2667C18.4048 10.2959 18.4717 10.3199 18.5386 10.3423C33.3667 15.0005 45.0005 26.6343 49.6588 41.4624C49.6794 41.5277 49.7052 41.5929 49.7326 41.6565C50.6571 44.3892 53.6217 45.7598 56.2378 44.9022C59.1277 44.0296 60.6119 40.9245 59.7632 38.409Z" fill="black"/>
<path d="M14.7946 21.415C14.2053 21.1552 13.5884 21.0321 12.9608 20.9985L9.67432 30.545C10.5441 31.1491 11.5752 31.5144 12.668 31.5144C15.5755 31.5143 17.9408 29.1489 17.9408 26.2414C17.9407 24.1526 16.7067 22.2577 14.7946 21.415Z" fill="black"/>
<path d="M24.4271 48.5118C23.5295 46.7009 21.7187 45.575 19.6985 45.575C16.791 45.575 14.4258 47.9403 14.4258 50.8478C14.4258 52.3 15.0042 53.6525 16.0529 54.6565C16.1312 54.7314 16.2231 54.7844 16.305 54.854L24.8343 51.9174C25.0639 50.7401 24.9532 49.574 24.4271 48.5118Z" fill="black"/>
<path d="M33.759 35.0295C32.7893 35.0295 32.0015 35.8174 32.0015 36.7871C32.0015 37.7568 32.7892 38.5447 33.759 38.5447C34.7288 38.5447 35.5166 37.7568 35.5166 36.7871C35.5166 35.8174 34.7288 35.0295 33.759 35.0295Z" fill="black"/>
<path d="M46.402 42.7824C41.5892 27.5087 31.4065 18.9686 16.9038 13.4765C16.507 13.3451 16.1175 13.154 15.7345 12.9414L14.1298 17.6025C14.8376 17.721 15.5379 17.9013 16.2139 18.1983C19.3979 19.604 21.4558 22.7605 21.4558 26.2415C21.4558 31.087 17.5133 35.0295 12.6678 35.0295C11.1849 35.0295 9.78022 34.5929 8.51647 33.9075L0.0963162 57.6593C-0.12341 58.2944 0.0397146 58.9982 0.515144 59.4735C0.998074 59.9564 1.70905 60.1086 2.32932 59.8923L12.6849 56.1C11.5474 54.5908 10.9103 52.7798 10.9103 50.8478C10.9103 46.0023 14.8528 42.0598 19.6983 42.0598C23.0641 42.0598 26.0832 43.9341 27.5766 46.9516C28.1623 48.134 28.3665 49.4075 28.3861 50.6946L47.0664 44.2635C46.8024 43.7951 46.5773 43.3012 46.402 42.7824ZM24.4563 38.0296C23.7698 38.7161 22.6571 38.7161 21.9705 38.0296C21.2842 37.3432 21.2842 36.2304 21.9705 35.5441C22.657 34.8577 23.7697 34.8577 24.4563 35.5441C25.1427 36.2304 25.1427 37.3434 24.4563 38.0296ZM25.4859 23.9689C24.7994 23.2823 24.7994 22.17 25.4859 21.4836C26.1724 20.7971 27.2848 20.7971 27.9712 21.4836L31.4864 24.9987C32.1729 25.6852 32.1729 26.7975 31.4864 27.484C30.7998 28.1706 29.6877 28.1706 29.0011 27.484L25.4859 23.9689ZM33.759 42.0598C30.8515 42.0598 28.4862 39.6945 28.4862 36.787C28.4862 33.8794 30.8515 31.5141 33.759 31.5141C36.6665 31.5141 39.0319 33.8794 39.0319 36.787C39.0319 39.6945 36.6665 42.0598 33.759 42.0598Z" fill="black"/>
</g>
<defs>
<clipPath id="clip0">
<rect width="60" height="60" fill="white"/>
</clipPath>
</defs>
</svg>
