<svg class="imgIcon" width="54" height="55" viewBox="0 0 54 55" fill="none" xmlns="http://www.w3.org/2000/svg">
<path d="M4.3865 19.9909C6.19647 22.7909 8.19187 25.4666 10.3593 28H11.9802C11.776 26.8292 11.4855 25.6751 11.1112 24.5471C9.68003 20.3628 7.18487 16.6228 3.87087 13.6946L5.129 12.3053C8.68264 15.4485 11.3569 19.4626 12.8887 23.9528C13.1362 24.6906 13.3396 25.4471 13.5206 26.2112C13.6049 26.0575 13.6921 25.9056 13.7662 25.7425C15.8765 21.055 14.8509 13.5906 10.3659 11.0012C9.28915 10.4455 8.11092 10.1138 6.9024 10.0263C5.69388 9.93883 4.48017 10.0973 3.33462 10.4921C2.81197 10.6247 2.32211 10.8632 1.89541 11.1928C1.4687 11.5224 1.11424 11.9362 0.853999 12.4084C0.356187 13.6656 1.72306 15.8725 4.3865 19.9909Z" fill="black"/>
<path d="M26.005 18.8863C25.9341 18.3206 25.7927 17.766 25.5841 17.2353C24.1225 13.5266 19.8569 11.4594 17.3013 12.2207C16.4622 12.5036 15.7382 13.0522 15.2388 13.7835C16.9655 17.5449 17.1611 21.8306 15.7844 25.7338C15.8378 25.6682 15.9016 25.61 15.9541 25.5463C17.9457 22.9708 19.1765 19.8892 19.5072 16.6503L21.371 16.8547C21.0074 20.445 19.6395 23.8602 17.4241 26.7088C17.0669 27.1607 16.6741 27.5853 16.2728 28.0025H20.5966L20.6744 27.966C20.1827 26.0554 20.4677 24.0278 21.467 22.3268C22.4663 20.6258 24.0986 19.3898 26.0069 18.8891L26.005 18.8863Z" fill="black"/>
<path d="M43.125 27.9998H52.5141C51.917 27.1347 51.0807 26.4623 50.1075 26.0648C49.4722 25.8505 48.8089 25.7305 48.1388 25.7085C47.2781 25.6448 46.3022 25.5717 45.8503 24.6689C45.3816 23.722 46.0219 22.9242 46.5356 22.282C47.0579 21.7146 47.4397 21.0326 47.6503 20.2907C48.1135 18.2704 48.1191 14.8795 46.2291 13.8164C45.7899 13.5922 45.31 13.4587 44.8181 13.424C44.3262 13.3892 43.8324 13.4537 43.366 13.6139C41.959 14.0364 40.7642 14.9759 40.0219 16.2435C39.2916 17.6554 39.7181 19.221 40.1306 20.7332C40.5431 22.2454 40.9744 23.8354 39.8381 24.9267C38.6841 26.0376 36.9985 25.5829 35.3663 25.1376C35.5043 26.0936 35.4449 27.0677 35.1919 27.9998H41.2191C41.4535 26.6723 41.7178 25.3429 42.0244 24.0351C42.5494 21.8001 43.1888 19.5632 43.9247 17.3873L45.7003 17.9873C44.9841 20.107 44.3616 22.2867 43.8506 24.4645C43.5769 25.6307 43.3397 26.8157 43.125 27.9998Z" fill="black"/>
<path d="M33.2376 27.9999C33.4096 27.5148 33.5122 27.0079 33.5423 26.4942L31.9833 27.0136L31.3908 25.2324L33.3426 24.5817C33.0496 23.5624 32.4748 22.6465 31.6844 21.9394C30.894 21.2322 29.92 20.7625 28.8745 20.5842V22.3749H26.9995V20.5842C26.1026 20.7375 25.2562 21.1057 24.5326 21.6574C23.8091 22.2091 23.2298 22.9278 22.8445 23.752L24.4833 24.2986L23.8908 26.0799L22.3411 25.5624C22.3221 25.7493 22.3124 25.937 22.312 26.1249C22.3108 26.7639 22.4205 27.3984 22.6364 27.9999H33.2376ZM26.9995 24.2499H28.8745V26.1249H26.9995V24.2499Z" fill="black"/>
<path d="M7.92443 28.0001C6.87568 26.7226 5.86599 25.4051 4.89536 24.0476C4.03852 24.3328 3.2092 24.6949 2.41755 25.1295C1.77465 25.409 1.25153 25.9072 0.940987 26.5357C0.749762 26.999 0.698904 27.5082 0.794737 28.0001H7.92443Z" fill="black"/>
<path d="M0.766602 29.875C1.01661 36.4191 3.79019 42.6123 8.50593 47.1564C13.2217 51.7005 19.5134 54.2427 26.0622 54.25H27.9372C34.486 54.2427 40.7778 51.7005 45.4935 47.1564C50.2093 42.6123 52.9828 36.4191 53.2328 29.875H0.766602ZM16.2794 49.4688C11.8446 47.3283 8.12563 43.9477 5.57316 39.7366L7.17629 38.7634C9.54131 42.665 12.9866 45.7973 17.095 47.7812L16.2794 49.4688ZM20.4372 50.5H18.5622V48.625H20.4372V50.5Z" fill="black"/>
<path d="M41.0625 5.5V3.625H37.3125C35.3234 3.625 33.4157 4.41518 32.0092 5.8217C30.6027 7.22822 29.8125 9.13588 29.8125 11.125V13H33.5625C35.5516 13 37.4593 12.2098 38.8658 10.8033C40.2723 9.39678 41.0625 7.48912 41.0625 5.5Z" fill="black"/>
<path d="M23.25 7.375C24.2855 7.375 25.125 6.53553 25.125 5.5C25.125 4.46447 24.2855 3.625 23.25 3.625C22.2145 3.625 21.375 4.46447 21.375 5.5C21.375 6.53553 22.2145 7.375 23.25 7.375Z" fill="black"/>
<path d="M11.0625 4.5625C12.098 4.5625 12.9375 3.72303 12.9375 2.6875C12.9375 1.65197 12.098 0.8125 11.0625 0.8125C10.027 0.8125 9.1875 1.65197 9.1875 2.6875C9.1875 3.72303 10.027 4.5625 11.0625 4.5625Z" fill="black"/>
</svg>
