<svg width="60" height="60" viewBox="0 0 60 60" fill="none" xmlns="http://www.w3.org/2000/svg">
<g clip-path="url(#clip0)">
<path d="M57.4123 3.98863C49.1421 7.52669 41.821 12.9201 35.9258 19.6443H40.4852C45.7696 14.23 52.1083 9.89686 59.1138 6.90002C61.1075 6.04735 59.388 3.14375 57.4123 3.98863Z" fill="black"/>
<path d="M34.4991 21.3301H0C0 37.809 13.3589 51.1679 29.8378 51.1679C46.3167 51.1679 59.6757 37.8088 59.6757 21.3301H38.9078H34.4991Z" fill="black"/>
<path d="M59.6757 54.5393H0V59.5966H59.6757V54.5393Z" fill="black"/>
<path d="M20.3517 13.0797C20.3833 13.0063 20.4019 12.9371 20.4259 12.8687C20.4518 12.8006 20.4983 12.7372 20.5314 12.6752C20.5746 12.6141 20.5837 12.5531 20.6359 12.4989C20.6831 12.4442 20.7212 12.3917 20.7586 12.3415C20.7892 12.2909 20.8362 12.2424 20.8884 12.1968C20.9377 12.1513 20.9791 12.1061 21.0166 12.0613C21.1164 11.9723 21.2323 11.886 21.3123 11.7943C21.4458 11.7042 21.5595 11.6082 21.6649 11.5104C21.789 11.4441 21.8952 11.3719 21.9873 11.2859C21.9966 11.2724 22.0641 11.2262 22.1194 11.1868L22.2877 11.0671C22.401 10.9882 22.5111 10.9049 22.6215 10.8217L22.8686 10.6376L23.2995 10.3049C23.8621 9.82712 24.3871 9.24652 24.8048 8.57402C25.2242 7.90407 25.5213 7.13832 25.6516 6.37902C25.7858 5.61948 25.7558 4.87805 25.6187 4.2335C25.4845 3.5858 25.2377 3.03425 24.9706 2.57704C24.4225 1.66238 23.7596 1.12129 23.262 0.806676C23.0165 0.646573 22.7909 0.553818 22.6497 0.487808C22.5027 0.424715 22.416 0.403076 22.416 0.403076C22.416 0.403076 22.4134 0.487808 22.4086 0.646816C22.4103 0.797923 22.3877 1.02878 22.3769 1.29379C22.3455 1.82783 22.2879 2.552 22.1341 3.25769C22.062 3.60938 21.9514 3.9556 21.8223 4.26231C21.6915 4.57121 21.5361 4.8389 21.3655 5.0745C21.1938 5.31082 21.0083 5.52052 20.7957 5.74141C20.5823 5.96096 20.3351 6.18853 20.0512 6.4285L19.8269 6.60878L19.7712 6.65473L19.7574 6.66616L19.631 6.76499L19.6212 6.77375L19.5825 6.80851L19.4275 6.94649C19.3239 7.03815 19.2208 7.12981 19.1214 7.22524L18.971 7.3665C18.9204 7.4144 18.8776 7.4505 18.7984 7.5418C18.5151 7.85228 18.2488 8.17394 18.0046 8.49658C17.798 8.83344 17.6109 9.17261 17.444 9.50765C17.3698 9.69376 17.3054 9.88328 17.2451 10.0687C17.187 10.2575 17.12 10.4301 17.089 10.6263C17.0567 10.8219 17.029 11.0147 17.0101 11.2042C17.001 11.2979 16.992 11.3914 16.9829 11.4841C16.9778 11.5771 16.9876 11.6735 16.991 11.7662C17.0082 12.1394 17.0399 12.4915 17.1451 12.8158C17.1937 12.9773 17.2328 13.1365 17.2924 13.2818C17.3568 13.4258 17.4154 13.5656 17.4863 13.6966C17.6133 13.9646 17.7847 14.1797 17.9346 14.3848C18.097 14.5819 18.2641 14.7469 18.4225 14.8956C18.5955 15.0323 18.7464 15.1585 18.9033 15.257C19.0637 15.3521 19.2023 15.4384 19.3413 15.5011C19.6107 15.6332 19.848 15.6943 19.9983 15.7385C20.1548 15.7783 20.2434 15.785 20.2434 15.785C20.2434 15.785 20.2331 15.7007 20.2134 15.5429C20.19 15.3935 20.182 15.1623 20.1632 14.9034C20.1598 14.776 20.156 14.6343 20.1517 14.4805C20.1567 14.3372 20.1621 14.1821 20.1678 14.0167C20.2013 13.6973 20.2435 13.3722 20.3517 13.0797Z" fill="black"/>
<path d="M30.0166 13.0797C30.0484 13.0063 30.0667 12.9371 30.0907 12.8687C30.1171 12.8006 30.1631 12.7372 30.1964 12.6752C30.2395 12.6141 30.2485 12.5531 30.3007 12.4989C30.348 12.4442 30.3858 12.3917 30.4234 12.3415C30.4542 12.2909 30.5011 12.2424 30.553 12.1968C30.6024 12.1513 30.6439 12.1061 30.6814 12.0613C30.7812 11.9723 30.897 11.886 30.9771 11.7943C31.1106 11.7042 31.224 11.6082 31.3297 11.5104C31.4538 11.4441 31.5601 11.3719 31.6521 11.2859C31.6613 11.2724 31.7289 11.2262 31.7841 11.1868L31.9523 11.0671C32.0658 10.9882 32.176 10.9049 32.286 10.8217L32.5332 10.6376L32.9641 10.3049C33.527 9.82712 34.0518 9.24652 34.4695 8.57402C34.889 7.90407 35.1861 7.13832 35.3166 6.37902C35.4508 5.61948 35.4206 4.87805 35.2835 4.2335C35.1493 3.5858 34.9026 3.03425 34.6356 2.57704C34.0873 1.66238 33.4246 1.12129 32.9272 0.806676C32.6817 0.646573 32.4564 0.553818 32.3149 0.487808C32.1679 0.424715 32.0812 0.403076 32.0812 0.403076C32.0812 0.403076 32.0787 0.487808 32.0738 0.646816C32.0754 0.797923 32.0529 1.02878 32.0419 1.29379C32.0106 1.82783 31.9532 2.552 31.7993 3.25769C31.7271 3.60938 31.6165 3.9556 31.4875 4.26231C31.3568 4.57121 31.2013 4.8389 31.0306 5.0745C30.859 5.31082 30.6735 5.52052 30.4609 5.74141C30.2471 5.96096 30.0001 6.18853 29.7163 6.4285L29.4921 6.60878L29.4364 6.65473L29.4226 6.66616L29.2961 6.76499L29.2864 6.77375L29.2476 6.80851L29.0925 6.94649C28.9889 7.03815 28.8858 7.12981 28.7864 7.22524L28.636 7.3665C28.5854 7.4144 28.5427 7.4505 28.4635 7.5418C28.1803 7.85228 27.9139 8.17394 27.6698 8.49658C27.4631 8.83344 27.2761 9.17261 27.1091 9.50765C27.035 9.69376 26.9706 9.88328 26.9103 10.0687C26.8523 10.2575 26.7852 10.4301 26.7542 10.6263C26.7218 10.8219 26.6941 11.0147 26.6753 11.2042C26.6662 11.2979 26.6572 11.3914 26.6479 11.4841C26.6428 11.5771 26.6527 11.6735 26.6559 11.7662C26.6732 12.1394 26.7048 12.4915 26.8101 12.8158C26.8586 12.9773 26.8977 13.1365 26.9574 13.2818C27.0219 13.4258 27.0805 13.5656 27.1513 13.6966C27.2787 13.9646 27.4498 14.1797 27.5997 14.3848C27.7622 14.5819 27.9291 14.7469 28.0875 14.8956C28.2604 15.0323 28.4115 15.1585 28.5683 15.257C28.7288 15.3521 28.8674 15.4384 29.0063 15.5011C29.2757 15.6332 29.513 15.6943 29.6634 15.7385C29.8198 15.7783 29.9086 15.785 29.9086 15.785C29.9086 15.785 29.8981 15.7007 29.8784 15.5429C29.8552 15.3935 29.8471 15.1623 29.8282 14.9034C29.8248 14.776 29.821 14.6343 29.8167 14.4805C29.8218 14.3372 29.8271 14.1821 29.8328 14.0167C29.8661 13.6973 29.908 13.3722 30.0166 13.0797Z" fill="black"/>
</g>
<defs>
<clipPath id="clip0">
<rect width="60" height="60" fill="white"/>
</clipPath>
</defs>
</svg>
