<svg width="51" height="45" viewBox="0 0 51 45" fill="none" xmlns="http://www.w3.org/2000/svg">
<path d="M12.4481 40.218H8.59811L7.83911 42H6.36511L9.83011 34.3H11.2381L14.7141 42H13.2181L12.4481 40.218ZM11.9751 39.096L10.5231 35.73L9.08211 39.096H11.9751ZM18.1829 39.646H17.1159V42H15.7409V36.126H17.1159V38.502H18.2159L19.9539 36.126H21.4279L19.2939 38.953L21.5709 42H19.9539L18.1829 39.646ZM28.9867 40.834V43.353H27.6997V42H22.5407V36.126H23.9157V40.834H26.7207V36.126H28.0957V40.834H28.9867ZM30.2106 36.126H31.5856V39.998L34.8306 36.126H36.0846V42H34.7096V38.128L31.4756 42H30.2106V36.126ZM37.9343 36.126H39.3093V39.998L42.5543 36.126H43.8083V42H42.4333V38.128L39.1993 42H37.9343V36.126Z" fill="#465500"/>
<g clip-path="url(#clip0)">
<path d="M35.6091 6.16652H30.6593C31.1641 5.68248 31.5668 5.09577 31.8421 4.44319C32.1173 3.79061 32.2592 3.08624 32.2588 2.37427V1.22511C32.2586 0.9001 32.1336 0.588491 31.9113 0.358767C31.6889 0.129043 31.3876 1.53185e-06 31.0733 1.63979e-06H29.3288C28.5999 -0.000239708 27.8797 0.164285 27.2187 0.48206C26.5577 0.799835 25.9719 1.26318 25.5022 1.83966C25.0323 1.26287 24.4461 0.799335 23.7848 0.481545C23.1234 0.163755 22.4029 -0.000598893 21.6736 1.63979e-06H19.9267C19.6123 1.63979e-06 19.3107 0.129181 19.0884 0.35912C18.8661 0.58906 18.7412 0.900926 18.7412 1.22611V2.37527C18.7412 3.08726 18.8836 3.79155 19.1592 4.44396C19.4349 5.09637 19.838 5.68282 20.3431 6.16652H15.3885C15.0748 6.16652 14.7641 6.23043 14.4743 6.3546C14.1845 6.47877 13.9212 6.66077 13.6994 6.8902C13.4776 7.11963 13.3017 7.392 13.1817 7.69176C13.0617 7.99152 12.9999 8.31279 13 8.63722V9.95426C12.9999 10.2787 13.0617 10.5999 13.1817 10.8996C13.3017 11.1994 13.4776 11.4717 13.6994 11.7011C13.9212 11.9305 14.1845 12.1124 14.4744 12.2366C14.7642 12.3607 15.0748 12.4245 15.3885 12.4245H15.5653V22.3058C15.5662 23.1742 15.9001 24.0069 16.4939 24.621C17.0877 25.2351 17.8928 25.5805 18.7325 25.5814H32.267C33.1068 25.5805 33.9118 25.2351 34.5056 24.621C35.0994 24.0069 35.4334 23.1742 35.4343 22.3058V12.4245H35.6091C35.9228 12.4245 36.2335 12.3607 36.5233 12.2366C36.8131 12.1125 37.0765 11.9305 37.2983 11.7011C37.5202 11.4717 37.6962 11.1994 37.8162 10.8997C37.9363 10.6 37.9981 10.2787 37.9981 9.95426V8.63722C37.9981 7.98195 37.7464 7.35351 37.2984 6.89017C36.8504 6.42682 36.2427 6.16652 35.6091 6.16652ZM29.3288 2.45222H29.8892C29.8686 3.16252 29.5815 3.83664 29.0888 4.33184C28.596 4.82704 27.9362 5.10444 27.2491 5.10529H26.6863C26.7067 4.39452 26.9941 3.71995 27.4874 3.22465C27.9808 2.72936 28.6413 2.45229 29.3288 2.45222ZM21.676 2.45222C22.3631 2.45295 23.0229 2.73032 23.5157 3.22556C24.0084 3.7208 24.2953 4.39499 24.3157 5.10529H23.7553C23.0682 5.10443 22.4085 4.82702 21.9158 4.33181C21.4231 3.83659 21.1361 3.16247 21.1156 2.45222H21.676ZM15.3885 9.97225H15.3822C15.3776 9.96979 15.3739 9.96596 15.3715 9.96126C15.3713 9.9591 15.3713 9.95692 15.3715 9.95476V8.63722C15.3713 8.63506 15.3713 8.63288 15.3715 8.63072C15.3739 8.62588 15.3776 8.62187 15.3822 8.61923H20.304V9.97275L15.3885 9.97225ZM22.119 23.1292H18.7325C18.6279 23.1292 18.5244 23.1079 18.4278 23.0665C18.3312 23.0251 18.2434 22.9645 18.1695 22.888C18.0956 22.8115 18.0369 22.7208 17.9969 22.6209C17.9569 22.521 17.9363 22.4139 17.9363 22.3058V12.4245H22.119V23.1292ZM33.0632 22.3058C33.0632 22.4139 33.0426 22.521 33.0026 22.6209C32.9626 22.7208 32.9039 22.8115 32.83 22.888C32.7561 22.9645 32.6683 23.0251 32.5717 23.0665C32.4751 23.1079 32.3716 23.1292 32.267 23.1292H28.881V12.4245H33.0632V22.3058ZM35.6289 9.95426C35.6292 9.95642 35.6292 9.9586 35.6289 9.96076C35.6264 9.96549 35.6225 9.96932 35.6178 9.97175H30.6955V8.61873H35.6173C35.6222 8.62121 35.6261 8.62524 35.6285 8.63022C35.6287 8.63238 35.6287 8.63456 35.6285 8.63672L35.6289 9.95426Z" fill="#465500"/>
</g>
<defs>
<clipPath id="clip0">
<rect width="25" height="25" fill="white" transform="translate(13)"/>
</clipPath>
</defs>
</svg>
