<svg width="25" height="25" viewBox="0 0 25 25" fill="none" xmlns="http://www.w3.org/2000/svg">
<g clip-path="url(#clip0)">
<path d="M22.6091 6.16652H17.6593C18.1641 5.68248 18.5668 5.09577 18.8421 4.44319C19.1173 3.79061 19.2592 3.08624 19.2588 2.37427V1.22511C19.2586 0.9001 19.1336 0.588491 18.9113 0.358767C18.6889 0.129043 18.3876 1.53185e-06 18.0733 1.63979e-06H16.3288C15.5999 -0.000239708 14.8797 0.164285 14.2187 0.48206C13.5577 0.799835 12.9719 1.26318 12.5022 1.83966C12.0323 1.26287 11.4461 0.799335 10.7848 0.481545C10.1234 0.163755 9.40285 -0.000598893 8.6736 1.63979e-06H6.9267C6.61228 1.63979e-06 6.31074 0.129181 6.08841 0.35912C5.86608 0.58906 5.74117 0.900926 5.74117 1.22611V2.37527C5.74124 3.08726 5.88357 3.79155 6.15924 4.44396C6.43491 5.09637 6.83797 5.68282 7.34314 6.16652H2.38845C2.07476 6.16652 1.76413 6.23043 1.47432 6.3546C1.18451 6.47877 0.921185 6.66077 0.699391 6.8902C0.477596 7.11963 0.301674 7.392 0.181671 7.69176C0.0616689 7.99152 -6.34011e-05 8.31279 4.88816e-08 8.63722V9.95426C-6.34157e-05 10.2787 0.0616724 10.5999 0.181681 10.8996C0.301689 11.1994 0.477619 11.4717 0.69942 11.7011C0.921221 11.9305 1.18455 12.1124 1.47436 12.2366C1.76417 12.3607 2.07478 12.4245 2.38845 12.4245H2.56527V22.3058C2.56616 23.1742 2.90014 24.0069 3.49391 24.621C4.08768 25.2351 4.89276 25.5805 5.73248 25.5814H19.267C20.1068 25.5805 20.9118 25.2351 21.5056 24.621C22.0994 24.0069 22.4334 23.1742 22.4343 22.3058V12.4245H22.6091C22.9228 12.4245 23.2335 12.3607 23.5233 12.2366C23.8131 12.1125 24.0765 11.9305 24.2983 11.7011C24.5202 11.4717 24.6962 11.1994 24.8162 10.8997C24.9363 10.6 24.9981 10.2787 24.9981 9.95426V8.63722C24.9981 7.98195 24.7464 7.35351 24.2984 6.89017C23.8504 6.42682 23.2427 6.16652 22.6091 6.16652ZM16.3288 2.45222H16.8892C16.8686 3.16252 16.5815 3.83664 16.0888 4.33184C15.596 4.82704 14.9362 5.10444 14.2491 5.10529H13.6863C13.7067 4.39452 13.9941 3.71995 14.4874 3.22465C14.9808 2.72936 15.6413 2.45229 16.3288 2.45222ZM8.67601 2.45222C9.3631 2.45295 10.0229 2.73032 10.5157 3.22556C11.0084 3.7208 11.2953 4.39499 11.3157 5.10529H10.7553C10.0682 5.10443 9.40848 4.82702 8.91577 4.33181C8.42306 3.83659 8.13608 3.16247 8.11562 2.45222H8.67601ZM2.38845 9.97225H2.38217C2.37763 9.96979 2.37392 9.96596 2.37154 9.96126C2.37132 9.9591 2.37132 9.95692 2.37154 9.95476V8.63722C2.37132 8.63506 2.37132 8.63288 2.37154 8.63072C2.37389 8.62588 2.37759 8.62187 2.38217 8.61923H7.30401V9.97275L2.38845 9.97225ZM9.11902 23.1292H5.73248C5.62793 23.1292 5.5244 23.1079 5.4278 23.0665C5.33121 23.0251 5.24344 22.9645 5.16951 22.888C5.09559 22.8115 5.03694 22.7208 4.99693 22.6209C4.95692 22.521 4.93633 22.4139 4.93633 22.3058V12.4245H9.11902V23.1292ZM20.0632 22.3058C20.0632 22.4139 20.0426 22.521 20.0026 22.6209C19.9626 22.7208 19.9039 22.8115 19.83 22.888C19.7561 22.9645 19.6683 23.0251 19.5717 23.0665C19.4751 23.1079 19.3716 23.1292 19.267 23.1292H15.881V12.4245H20.0632V22.3058ZM22.6289 9.95426C22.6292 9.95642 22.6292 9.9586 22.6289 9.96076C22.6264 9.96549 22.6225 9.96932 22.6178 9.97175H17.6955V8.61873H22.6173C22.6222 8.62121 22.6261 8.62524 22.6285 8.63022C22.6287 8.63238 22.6287 8.63456 22.6285 8.63672L22.6289 9.95426Z" fill="#465500"/>
</g>
<defs>
<clipPath id="clip0">
<rect width="25" height="25" fill="white"/>
</clipPath>
</defs>
</svg>
