<svg width="25" height="25" viewBox="0 0 25 25" fill="none" xmlns="http://www.w3.org/2000/svg">
<g clip-path="url(#clip0)">
<path d="M20.1665 8.8659V5.97587C20.1665 4.11728 18.7292 2.60425 16.9283 2.60425H8.1005C7.23409 2.60494 6.40334 2.96033 5.79054 3.59243C5.17773 4.22454 4.83294 5.08171 4.83182 5.97587V8.86502H1.42157C1.04451 8.86514 0.682927 9.0198 0.416343 9.29501C0.149759 9.57021 4.64789e-08 9.94342 6.32283e-08 10.3326V13.5218C-5.56263e-05 13.7145 0.0366764 13.9053 0.108097 14.0833C0.179518 14.2613 0.284228 14.4231 0.416245 14.5593C0.548261 14.6955 0.704996 14.8036 0.877494 14.8773C1.04999 14.951 1.23487 14.9889 1.42157 14.9889H1.84542L3.3988 23.7959C3.45845 24.1338 3.63112 24.4395 3.88671 24.6595C4.14231 24.8796 4.46463 25.0001 4.79749 25.0001H20.2322C20.5651 25 20.8874 24.8794 21.143 24.6593C21.3986 24.4391 21.5712 24.1334 21.6309 23.7954L23.1843 14.9889H23.5797C23.7664 14.9889 23.9513 14.951 24.1238 14.8773C24.2963 14.8036 24.453 14.6955 24.585 14.5593C24.717 14.4231 24.8218 14.2613 24.8932 14.0833C24.9646 13.9053 25.0013 13.7145 25.0013 13.5218V10.3326C25.0013 9.94342 24.8515 9.57021 24.5849 9.29501C24.3183 9.0198 23.9568 8.86514 23.5797 8.86502H20.1678L20.1665 8.8659ZM7.46686 5.97587C7.46906 5.80281 7.53683 5.63751 7.65566 5.51537C7.77448 5.39323 7.93492 5.32395 8.10262 5.32237H16.93C17.2729 5.32237 17.534 5.62112 17.534 5.97587V8.86502H7.46686V5.97587ZM9.43307 19.7567C9.43578 19.8918 9.41236 20.026 9.36418 20.1515C9.31599 20.2771 9.24401 20.3914 9.15245 20.4879C9.06089 20.5844 8.9516 20.661 8.83097 20.7133C8.71034 20.7657 8.58081 20.7926 8.44996 20.7926C8.31911 20.7926 8.18958 20.7657 8.06895 20.7133C7.94832 20.661 7.83903 20.5844 7.74747 20.4879C7.65591 20.3914 7.58393 20.2771 7.53574 20.1515C7.48756 20.026 7.46414 19.8918 7.46686 19.7567V14.1521C7.46414 14.0171 7.48756 13.8829 7.53574 13.7573C7.58393 13.6318 7.65591 13.5174 7.74747 13.4209C7.83903 13.3245 7.94832 13.2478 8.06895 13.1955C8.18958 13.1432 8.31911 13.1162 8.44996 13.1162C8.58081 13.1162 8.71034 13.1432 8.83097 13.1955C8.9516 13.2478 9.06089 13.3245 9.15245 13.4209C9.24401 13.5174 9.31599 13.6318 9.36418 13.7573C9.41236 13.8829 9.43578 14.0171 9.43307 14.1521V19.7567ZM13.502 19.7567C13.5047 19.8918 13.4813 20.0261 13.433 20.1517C13.3848 20.2773 13.3128 20.3917 13.2212 20.4882C13.1296 20.5847 13.0203 20.6614 12.8996 20.7138C12.7789 20.7661 12.6493 20.7931 12.5184 20.7931C12.3875 20.7931 12.2579 20.7661 12.1373 20.7138C12.0166 20.6614 11.9072 20.5847 11.8156 20.4882C11.724 20.3917 11.652 20.2773 11.6038 20.1517C11.5556 20.0261 11.5322 19.8918 11.5349 19.7567V14.1521C11.5322 14.017 11.5556 13.8828 11.6038 13.7572C11.652 13.6316 11.724 13.5171 11.8156 13.4206C11.9072 13.3241 12.0166 13.2474 12.1373 13.1951C12.2579 13.1427 12.3875 13.1158 12.5184 13.1158C12.6493 13.1158 12.7789 13.1427 12.8996 13.1951C13.0203 13.2474 13.1296 13.3241 13.2212 13.4206C13.3128 13.5171 13.3848 13.6316 13.433 13.7572C13.4813 13.8828 13.5047 14.017 13.502 14.1521V19.7567ZM17.5709 19.7567C17.5709 20.0259 17.4673 20.284 17.2829 20.4743C17.0985 20.6646 16.8483 20.7716 16.5875 20.7716C16.3268 20.7716 16.0766 20.6646 15.8922 20.4743C15.7078 20.284 15.6042 20.0259 15.6042 19.7567V14.1521C15.6042 13.883 15.7078 13.6248 15.8922 13.4345C16.0766 13.2442 16.3268 13.1373 16.5875 13.1373C16.8483 13.1373 17.0985 13.2442 17.2829 13.4345C17.4673 13.6248 17.5709 13.883 17.5709 14.1521V19.7567Z" fill="#465500"/>
</g>
<defs>
<clipPath id="clip0">
<rect width="25" height="25" fill="white"/>
</clipPath>
</defs>
</svg>
