<svg width="51" height="45" viewBox="0 0 51 45" fill="none" xmlns="http://www.w3.org/2000/svg">
<path d="M4.33299 38.755H2.90299V42H1.49499V34.3H2.90299V37.523H4.37699L6.58799 34.3H8.10599L5.47699 38.029L8.20499 42H6.58799L4.33299 38.755ZM11.5645 42.077C10.9705 42.077 10.4351 41.9487 9.95846 41.692C9.48179 41.4353 9.10779 41.0797 8.83646 40.625C8.57246 40.163 8.44046 39.6423 8.44046 39.063C8.44046 38.4837 8.57246 37.9667 8.83646 37.512C9.10779 37.0573 9.48179 36.7017 9.95846 36.445C10.4351 36.1883 10.9705 36.06 11.5645 36.06C12.1658 36.06 12.7048 36.1883 13.1815 36.445C13.6581 36.7017 14.0285 37.0573 14.2925 37.512C14.5638 37.9667 14.6995 38.4837 14.6995 39.063C14.6995 39.6423 14.5638 40.163 14.2925 40.625C14.0285 41.0797 13.6581 41.4353 13.1815 41.692C12.7048 41.9487 12.1658 42.077 11.5645 42.077ZM11.5645 40.9C12.0705 40.9 12.4885 40.7313 12.8185 40.394C13.1485 40.0567 13.3135 39.613 13.3135 39.063C13.3135 38.513 13.1485 38.0693 12.8185 37.732C12.4885 37.3947 12.0705 37.226 11.5645 37.226C11.0585 37.226 10.6405 37.3947 10.3105 37.732C9.98779 38.0693 9.82646 38.513 9.82646 39.063C9.82646 39.613 9.98779 40.0567 10.3105 40.394C10.6405 40.7313 11.0585 40.9 11.5645 40.9ZM19.3138 36.06C19.8858 36.06 20.3955 36.1847 20.8428 36.434C21.2975 36.6833 21.6531 37.0353 21.9098 37.49C22.1665 37.9447 22.2948 38.469 22.2948 39.063C22.2948 39.657 22.1665 40.185 21.9098 40.647C21.6531 41.1017 21.2975 41.4537 20.8428 41.703C20.3955 41.9523 19.8858 42.077 19.3138 42.077C18.5218 42.077 17.8948 41.813 17.4328 41.285V44.134H16.0578V36.126H17.3668V36.896C17.5941 36.6173 17.8728 36.4083 18.2028 36.269C18.5401 36.1297 18.9105 36.06 19.3138 36.06ZM19.1598 40.9C19.6658 40.9 20.0801 40.7313 20.4028 40.394C20.7328 40.0567 20.8978 39.613 20.8978 39.063C20.8978 38.513 20.7328 38.0693 20.4028 37.732C20.0801 37.3947 19.6658 37.226 19.1598 37.226C18.8298 37.226 18.5328 37.303 18.2688 37.457C18.0048 37.6037 17.7958 37.8163 17.6418 38.095C17.4878 38.3737 17.4108 38.6963 17.4108 39.063C17.4108 39.4297 17.4878 39.7523 17.6418 40.031C17.7958 40.3097 18.0048 40.526 18.2688 40.68C18.5328 40.8267 18.8298 40.9 19.1598 40.9ZM27.0863 38.942C27.453 39.0447 27.7353 39.2133 27.9333 39.448C28.1387 39.6753 28.2413 39.9503 28.2413 40.273C28.2413 40.6323 28.1203 40.9513 27.8783 41.23C27.6363 41.5013 27.3027 41.714 26.8773 41.868C26.452 42.022 25.968 42.099 25.4253 42.099C24.9707 42.099 24.527 42.0477 24.0943 41.945C23.6617 41.835 23.2693 41.681 22.9173 41.483L23.3133 40.46C23.5993 40.6213 23.922 40.746 24.2813 40.834C24.6407 40.922 25 40.966 25.3593 40.966C25.8213 40.966 26.1807 40.8963 26.4373 40.757C26.7013 40.6103 26.8333 40.4123 26.8333 40.163C26.8333 39.9357 26.7307 39.7597 26.5253 39.635C26.3273 39.5103 26.045 39.448 25.6783 39.448H24.5343V38.524H25.5683C25.913 38.524 26.1807 38.4653 26.3713 38.348C26.5693 38.2307 26.6683 38.0657 26.6683 37.853C26.6683 37.6403 26.551 37.4717 26.3163 37.347C26.0817 37.2223 25.759 37.16 25.3483 37.16C24.7617 37.16 24.142 37.303 23.4893 37.589L23.1373 36.577C23.9073 36.2177 24.6847 36.038 25.4693 36.038C25.968 36.038 26.4153 36.1077 26.8113 36.247C27.2073 36.379 27.5153 36.5697 27.7353 36.819C27.9627 37.061 28.0763 37.3397 28.0763 37.655C28.0763 37.941 27.9883 38.1977 27.8123 38.425C27.6363 38.645 27.3943 38.8173 27.0863 38.942ZM29.6681 36.126H31.0431V39.998L34.2881 36.126H35.5421V42H34.1671V38.128L30.9331 42H29.6681V36.126ZM37.3918 36.126H38.7668V38.513H41.7258V36.126H43.1008V42H41.7258V39.679H38.7668V42H37.3918V36.126ZM47.1325 36.06C47.9979 36.06 48.6579 36.269 49.1125 36.687C49.5745 37.0977 49.8055 37.721 49.8055 38.557V42H48.5075V41.285C48.3389 41.5417 48.0969 41.7397 47.7815 41.879C47.4735 42.011 47.0995 42.077 46.6595 42.077C46.2195 42.077 45.8345 42.0037 45.5045 41.857C45.1745 41.703 44.9179 41.494 44.7345 41.23C44.5585 40.9587 44.4705 40.6543 44.4705 40.317C44.4705 39.789 44.6649 39.3673 45.0535 39.052C45.4495 38.7293 46.0692 38.568 46.9125 38.568H48.4305V38.48C48.4305 38.0693 48.3059 37.754 48.0565 37.534C47.8145 37.314 47.4515 37.204 46.9675 37.204C46.6375 37.204 46.3112 37.2553 45.9885 37.358C45.6732 37.4607 45.4055 37.6037 45.1855 37.787L44.6465 36.786C44.9545 36.5513 45.3249 36.3717 45.7575 36.247C46.1902 36.1223 46.6485 36.06 47.1325 36.06ZM46.9455 41.076C47.2902 41.076 47.5945 40.999 47.8585 40.845C48.1299 40.6837 48.3205 40.4563 48.4305 40.163V39.481H47.0115C46.2195 39.481 45.8235 39.7413 45.8235 40.262C45.8235 40.5113 45.9225 40.7093 46.1205 40.856C46.3185 41.0027 46.5935 41.076 46.9455 41.076Z" fill="#465500"/>
<g clip-path="url(#clip0)">
<path d="M33.1665 8.8659V5.97587C33.1665 4.11728 31.7292 2.60425 29.9283 2.60425H21.1005C20.2341 2.60494 19.4033 2.96033 18.7905 3.59243C18.1777 4.22454 17.8329 5.08171 17.8318 5.97587V8.86502H14.4216C14.0445 8.86514 13.6829 9.0198 13.4163 9.29501C13.1498 9.57021 13 9.94342 13 10.3326V13.5218C12.9999 13.7145 13.0367 13.9053 13.1081 14.0833C13.1795 14.2613 13.2842 14.4231 13.4162 14.5593C13.5483 14.6955 13.705 14.8036 13.8775 14.8773C14.05 14.951 14.2349 14.9889 14.4216 14.9889H14.8454L16.3988 23.7959C16.4584 24.1338 16.6311 24.4395 16.8867 24.6595C17.1423 24.8796 17.4646 25.0001 17.7975 25.0001H33.2322C33.5651 25 33.8874 24.8794 34.143 24.6593C34.3986 24.4391 34.5712 24.1334 34.6309 23.7954L36.1843 14.9889H36.5797C36.7664 14.9889 36.9513 14.951 37.1238 14.8773C37.2963 14.8036 37.453 14.6955 37.585 14.5593C37.717 14.4231 37.8218 14.2613 37.8932 14.0833C37.9646 13.9053 38.0013 13.7145 38.0013 13.5218V10.3326C38.0013 9.94342 37.8515 9.57021 37.5849 9.29501C37.3183 9.0198 36.9568 8.86514 36.5797 8.86502H33.1678L33.1665 8.8659ZM20.4669 5.97587C20.4691 5.80281 20.5368 5.63751 20.6557 5.51537C20.7745 5.39323 20.9349 5.32395 21.1026 5.32237H29.93C30.2729 5.32237 30.534 5.62112 30.534 5.97587V8.86502H20.4669V5.97587ZM22.4331 19.7567C22.4358 19.8918 22.4124 20.026 22.3642 20.1515C22.316 20.2771 22.244 20.3914 22.1525 20.4879C22.0609 20.5844 21.9516 20.661 21.831 20.7133C21.7103 20.7657 21.5808 20.7926 21.45 20.7926C21.3191 20.7926 21.1896 20.7657 21.069 20.7133C20.9483 20.661 20.839 20.5844 20.7475 20.4879C20.6559 20.3914 20.5839 20.2771 20.5357 20.1515C20.4876 20.026 20.4641 19.8918 20.4669 19.7567V14.1521C20.4641 14.0171 20.4876 13.8829 20.5357 13.7573C20.5839 13.6318 20.6559 13.5174 20.7475 13.4209C20.839 13.3245 20.9483 13.2478 21.069 13.1955C21.1896 13.1432 21.3191 13.1162 21.45 13.1162C21.5808 13.1162 21.7103 13.1432 21.831 13.1955C21.9516 13.2478 22.0609 13.3245 22.1525 13.4209C22.244 13.5174 22.316 13.6318 22.3642 13.7573C22.4124 13.8829 22.4358 14.0171 22.4331 14.1521V19.7567ZM26.502 19.7567C26.5047 19.8918 26.4813 20.0261 26.433 20.1517C26.3848 20.2773 26.3128 20.3917 26.2212 20.4882C26.1296 20.5847 26.0203 20.6614 25.8996 20.7138C25.7789 20.7661 25.6493 20.7931 25.5184 20.7931C25.3875 20.7931 25.2579 20.7661 25.1373 20.7138C25.0166 20.6614 24.9072 20.5847 24.8156 20.4882C24.724 20.3917 24.652 20.2773 24.6038 20.1517C24.5556 20.0261 24.5322 19.8918 24.5349 19.7567V14.1521C24.5322 14.017 24.5556 13.8828 24.6038 13.7572C24.652 13.6316 24.724 13.5171 24.8156 13.4206C24.9072 13.3241 25.0166 13.2474 25.1373 13.1951C25.2579 13.1427 25.3875 13.1158 25.5184 13.1158C25.6493 13.1158 25.7789 13.1427 25.8996 13.1951C26.0203 13.2474 26.1296 13.3241 26.2212 13.4206C26.3128 13.5171 26.3848 13.6316 26.433 13.7572C26.4813 13.8828 26.5047 14.017 26.502 14.1521V19.7567ZM30.5709 19.7567C30.5709 20.0259 30.4673 20.284 30.2829 20.4743C30.0985 20.6646 29.8483 20.7716 29.5875 20.7716C29.3268 20.7716 29.0766 20.6646 28.8922 20.4743C28.7078 20.284 28.6042 20.0259 28.6042 19.7567V14.1521C28.6042 13.883 28.7078 13.6248 28.8922 13.4345C29.0766 13.2442 29.3268 13.1373 29.5875 13.1373C29.8483 13.1373 30.0985 13.2442 30.2829 13.4345C30.4673 13.6248 30.5709 13.883 30.5709 14.1521V19.7567Z" fill="#465500"/>
</g>
<defs>
<clipPath id="clip0">
<rect width="25" height="25" fill="white" transform="translate(13)"/>
</clipPath>
</defs>
</svg>
