<svg width="25" height="25" viewBox="0 0 25 25" fill="none" xmlns="http://www.w3.org/2000/svg">
<g clip-path="url(#clip0)">
<g clip-path="url(#clip1)">
<path d="M10.2285 14.3975L9.18604 22.4772C11.5953 22.0951 14.0288 21.8856 16.4679 21.8503C19.2303 21.9017 21.9849 22.1616 24.7083 22.6277C24.4624 20.4216 24.1838 17.3175 24.1559 14.3975H20.8655C20.622 16.5134 18.8307 18.1104 16.7008 18.1104C14.5709 18.1104 12.7796 16.5134 12.5361 14.3975H10.2285Z" fill="#465500"/>
<path d="M16.7 17.1921C18.5008 17.1921 19.9606 15.7323 19.9606 13.9315C19.9606 12.1307 18.5008 10.6709 16.7 10.6709C14.8993 10.6709 13.4395 12.1307 13.4395 13.9315C13.4395 15.7323 14.8993 17.1921 16.7 17.1921Z" fill="#465500"/>
<path d="M16.7005 6.01302C14.0158 5.96345 11.339 5.70555 8.69434 5.24163C8.70396 5.33074 8.71405 5.42142 8.7246 5.51364C9.70339 6.36312 10.3536 7.52869 10.5622 8.80776H10.6451C11.4168 8.80776 12.0425 9.43339 12.0425 10.2052C12.0425 10.9769 11.4169 11.6026 10.6451 11.6026H10.5887L10.3484 13.4658H12.5376C12.7811 11.3499 14.5724 9.75282 16.7023 9.75282C18.8322 9.75282 20.6235 11.3499 20.867 13.4658H24.1574C24.1854 10.5466 24.4634 7.44534 24.7094 5.23975C22.0642 5.70698 19.3862 5.96554 16.7005 6.01302Z" fill="#465500"/>
<path d="M16.7005 5.08128C19.424 5.02992 22.139 4.76016 24.8194 4.27453C24.8897 3.69369 24.9526 3.21066 24.9996 2.86035C22.2592 3.35296 19.4842 3.62832 16.7005 3.68391C13.9166 3.62812 11.1414 3.35275 8.40088 2.86035C8.44744 3.2125 8.51128 3.69369 8.58159 4.27683C11.2624 4.75878 13.9772 5.02778 16.7005 5.08128Z" fill="#465500"/>
<path d="M8.59202 13.8422C8.03252 13.9062 7.46925 13.9312 6.90629 13.9172C6.34109 13.879 5.77909 13.8024 5.22428 13.688C4.56192 13.5369 3.88387 13.4652 3.2046 13.4747C2.52298 13.5431 1.85191 13.6921 1.20539 13.9186C1.06238 13.9619 0.919375 14.0015 0.776367 14.0434L2.09971 24.2985C2.16064 24.7626 2.55574 25.1099 3.02384 25.1108H7.08746C7.55556 25.1099 7.95065 24.7626 8.01158 24.2985L9.36845 13.783C9.11509 13.798 8.85842 13.818 8.59202 13.8422ZM1.9348 15.8544L1.87422 15.3886C1.84131 15.1334 2.02146 14.8998 2.27665 14.8669C2.53184 14.834 2.76543 15.0142 2.79835 15.2694L2.85841 15.7352C2.89142 15.9902 2.71148 16.2237 2.45644 16.2569C2.43637 16.2595 2.41614 16.2607 2.39587 16.2606C2.16207 16.2602 1.96475 16.0864 1.9348 15.8544ZM3.78712 23.9982C3.71157 24.096 3.60015 24.1598 3.47752 24.1755H3.47798C3.4579 24.1781 3.43768 24.1794 3.4174 24.1792C3.1835 24.1788 2.98619 24.0051 2.95628 23.773L2.17516 17.7177C2.14964 17.5506 2.21658 17.3828 2.35011 17.2792C2.48365 17.1756 2.66283 17.1525 2.81827 17.2188C2.97375 17.2851 3.0811 17.4304 3.09883 17.5984L3.88046 23.6538C3.8963 23.7764 3.86273 23.9003 3.78712 23.9982Z" fill="#465500"/>
<path d="M24.8197 23.5908C22.0605 23.1075 19.2681 22.8371 16.4674 22.7817C13.986 22.8204 11.5107 23.0399 9.06125 23.4385L8.93501 24.4167C8.91335 24.5694 8.87234 24.7187 8.81299 24.861C11.3447 24.4498 13.9029 24.2219 16.4675 24.1791C19.3287 24.235 22.1813 24.5112 25 25.0054C24.9524 24.6552 24.8896 24.1721 24.8197 23.5908Z" fill="#465500"/>
<path d="M3.15211 12.5441C3.90521 12.5303 4.65724 12.6068 5.39214 12.7719C5.90559 12.8785 6.4257 12.9502 6.94882 12.9866C7.4694 12.9992 7.99023 12.975 8.50739 12.9144C8.82927 12.8851 9.15717 12.8632 9.48883 12.8483L9.64952 11.6027H9.24755C8.99031 11.6027 8.78174 11.3942 8.78174 11.1369C8.78174 10.8797 8.99026 10.6711 9.24755 10.6711H10.645C10.9022 10.6711 11.1108 10.4626 11.1108 10.2053C11.1108 9.94808 10.9022 9.7395 10.645 9.7395H5.05539H-0.534193C-0.791424 9.7395 -1 9.94803 -1 10.2053C-1 10.4625 -0.791475 10.6711 -0.534193 10.6711H7.38442C7.64165 10.6711 7.85023 10.8796 7.85023 11.1369C7.85023 11.3942 7.6417 11.6027 7.38442 11.6027H0.461206L0.655466 13.1087C0.748648 13.0807 0.841779 13.0556 0.93496 13.0276C1.65209 12.7786 2.39642 12.6163 3.15211 12.5441Z" fill="#465500"/>
<path d="M5.52106 9.27358V8.80777H9.61637C9.40984 7.76474 8.84922 6.82518 8.02938 6.14804C7.99866 6.12828 7.97054 6.10479 7.94552 6.0782C7.24745 5.52792 6.40586 5.18999 5.52101 5.10465V2.28658C5.52101 1.51484 4.89539 0.88916 4.12359 0.88916H1.79466C1.53743 0.88916 1.32885 1.09769 1.32885 1.35497C1.32885 1.6122 1.53738 1.82077 1.79466 1.82077H4.12364C4.38087 1.82077 4.58945 2.0293 4.58945 2.28658V5.10465C2.5554 5.29703 0.889641 6.80327 0.494141 8.80777H4.58945V9.27358C4.58945 9.53081 4.79798 9.73939 5.05526 9.73939C5.31254 9.73939 5.52106 9.53086 5.52106 9.27358Z" fill="#465500"/>
</g>
</g>
<defs>
<clipPath id="clip0">
<rect width="25" height="25" fill="white"/>
</clipPath>
<clipPath id="clip1">
<rect width="25" height="26" fill="white"/>
</clipPath>
</defs>
</svg>
