<svg width="51" height="45" viewBox="0 0 51 45" fill="none" xmlns="http://www.w3.org/2000/svg">
<path d="M10.4023 38.755H8.97233V42H7.56433V34.3H8.97233V37.523H10.4463L12.6573 34.3H14.1753L11.5463 38.029L14.2743 42H12.6573L10.4023 38.755ZM17.6338 42.077C17.0398 42.077 16.5045 41.9487 16.0278 41.692C15.5511 41.4353 15.1771 41.0797 14.9058 40.625C14.6418 40.163 14.5098 39.6423 14.5098 39.063C14.5098 38.4837 14.6418 37.9667 14.9058 37.512C15.1771 37.0573 15.5511 36.7017 16.0278 36.445C16.5045 36.1883 17.0398 36.06 17.6338 36.06C18.2351 36.06 18.7741 36.1883 19.2508 36.445C19.7275 36.7017 20.0978 37.0573 20.3618 37.512C20.6331 37.9667 20.7688 38.4837 20.7688 39.063C20.7688 39.6423 20.6331 40.163 20.3618 40.625C20.0978 41.0797 19.7275 41.4353 19.2508 41.692C18.7741 41.9487 18.2351 42.077 17.6338 42.077ZM17.6338 40.9C18.1398 40.9 18.5578 40.7313 18.8878 40.394C19.2178 40.0567 19.3828 39.613 19.3828 39.063C19.3828 38.513 19.2178 38.0693 18.8878 37.732C18.5578 37.3947 18.1398 37.226 17.6338 37.226C17.1278 37.226 16.7098 37.3947 16.3798 37.732C16.0571 38.0693 15.8958 38.513 15.8958 39.063C15.8958 39.613 16.0571 40.0567 16.3798 40.394C16.7098 40.7313 17.1278 40.9 17.6338 40.9ZM27.9021 42V38.106L25.9221 41.384H25.3281L23.3811 38.095V42H22.1271V36.126H23.5681L25.6581 39.8L27.8471 36.126H29.1341L29.1451 42H27.9021ZM34.1684 36.412C34.7258 36.412 35.2171 36.533 35.6424 36.775C36.0678 37.0097 36.3978 37.3397 36.6324 37.765C36.8744 38.1903 36.9954 38.678 36.9954 39.228C36.9954 39.7927 36.8634 40.295 36.5994 40.735C36.3354 41.1677 35.9651 41.505 35.4884 41.747C35.0118 41.989 34.4691 42.11 33.8604 42.11C32.8411 42.11 32.0528 41.7727 31.4954 41.098C30.9381 40.4233 30.6594 39.4517 30.6594 38.183C30.6594 37.0023 30.9124 36.0673 31.4184 35.378C31.9244 34.6887 32.6981 34.234 33.7394 34.014L36.4674 33.431L36.6654 34.663L34.1904 35.169C33.4791 35.3157 32.9474 35.565 32.5954 35.917C32.2434 36.269 32.0381 36.764 31.9794 37.402C32.2434 37.0867 32.5624 36.8447 32.9364 36.676C33.3104 36.5 33.7211 36.412 34.1684 36.412ZM33.8934 40.999C34.3994 40.999 34.8064 40.8377 35.1144 40.515C35.4298 40.185 35.5874 39.767 35.5874 39.261C35.5874 38.755 35.4298 38.348 35.1144 38.04C34.8064 37.732 34.3994 37.578 33.8934 37.578C33.3801 37.578 32.9658 37.732 32.6504 38.04C32.3351 38.348 32.1774 38.755 32.1774 39.261C32.1774 39.7743 32.3351 40.1923 32.6504 40.515C32.9731 40.8377 33.3874 40.999 33.8934 40.999ZM40.9443 42.077C40.3503 42.077 39.815 41.9487 39.3383 41.692C38.8617 41.4353 38.4877 41.0797 38.2163 40.625C37.9523 40.163 37.8203 39.6423 37.8203 39.063C37.8203 38.4837 37.9523 37.9667 38.2163 37.512C38.4877 37.0573 38.8617 36.7017 39.3383 36.445C39.815 36.1883 40.3503 36.06 40.9443 36.06C41.5457 36.06 42.0847 36.1883 42.5613 36.445C43.038 36.7017 43.4083 37.0573 43.6723 37.512C43.9437 37.9667 44.0793 38.4837 44.0793 39.063C44.0793 39.6423 43.9437 40.163 43.6723 40.625C43.4083 41.0797 43.038 41.4353 42.5613 41.692C42.0847 41.9487 41.5457 42.077 40.9443 42.077ZM40.9443 40.9C41.4503 40.9 41.8683 40.7313 42.1983 40.394C42.5283 40.0567 42.6933 39.613 42.6933 39.063C42.6933 38.513 42.5283 38.0693 42.1983 37.732C41.8683 37.3947 41.4503 37.226 40.9443 37.226C40.4383 37.226 40.0203 37.3947 39.6903 37.732C39.3677 38.0693 39.2063 38.513 39.2063 39.063C39.2063 39.613 39.3677 40.0567 39.6903 40.394C40.0203 40.7313 40.4383 40.9 40.9443 40.9Z" fill="#465500"/>
<g clip-path="url(#clip0)">
<g clip-path="url(#clip1)">
<path d="M23.2285 14.3975L22.186 22.4772C24.5953 22.0951 27.0288 21.8856 29.4679 21.8503C32.2303 21.9017 34.9849 22.1616 37.7083 22.6277C37.4624 20.4216 37.1838 17.3175 37.1559 14.3975H33.8655C33.622 16.5134 31.8307 18.1104 29.7008 18.1104C27.5709 18.1104 25.7796 16.5134 25.5361 14.3975H23.2285Z" fill="#465500"/>
<path d="M29.7 17.1921C31.5008 17.1921 32.9606 15.7323 32.9606 13.9315C32.9606 12.1307 31.5008 10.6709 29.7 10.6709C27.8993 10.6709 26.4395 12.1307 26.4395 13.9315C26.4395 15.7323 27.8993 17.1921 29.7 17.1921Z" fill="#465500"/>
<path d="M29.7005 6.01302C27.0158 5.96345 24.339 5.70555 21.6943 5.24163C21.704 5.33074 21.7141 5.42142 21.7246 5.51364C22.7034 6.36312 23.3536 7.52869 23.5622 8.80776H23.6451C24.4168 8.80776 25.0425 9.43339 25.0425 10.2052C25.0425 10.9769 24.4169 11.6026 23.6451 11.6026H23.5887L23.3484 13.4658H25.5376C25.7811 11.3499 27.5724 9.75282 29.7023 9.75282C31.8322 9.75282 33.6235 11.3499 33.867 13.4658H37.1574C37.1854 10.5466 37.4634 7.44534 37.7094 5.23975C35.0642 5.70698 32.3862 5.96554 29.7005 6.01302Z" fill="#465500"/>
<path d="M29.7005 5.08128C32.424 5.02992 35.139 4.76016 37.8194 4.27453C37.8897 3.69369 37.9526 3.21066 37.9996 2.86035C35.2592 3.35296 32.4842 3.62832 29.7005 3.68391C26.9166 3.62812 24.1414 3.35275 21.4009 2.86035C21.4474 3.2125 21.5113 3.69369 21.5816 4.27683C24.2624 4.75878 26.9772 5.02778 29.7005 5.08128Z" fill="#465500"/>
<path d="M21.592 13.8422C21.0325 13.9062 20.4693 13.9312 19.9063 13.9172C19.3411 13.879 18.7791 13.8024 18.2243 13.688C17.5619 13.5369 16.8839 13.4652 16.2046 13.4747C15.523 13.5431 14.8519 13.6921 14.2054 13.9186C14.0624 13.9619 13.9194 14.0015 13.7764 14.0434L15.0997 24.2985C15.1606 24.7626 15.5557 25.1099 16.0238 25.1108H20.0875C20.5556 25.1099 20.9506 24.7626 21.0116 24.2985L22.3684 13.783C22.1151 13.798 21.8584 13.818 21.592 13.8422ZM14.9348 15.8544L14.8742 15.3886C14.8413 15.1334 15.0215 14.8998 15.2766 14.8669C15.5318 14.834 15.7654 15.0142 15.7983 15.2694L15.8584 15.7352C15.8914 15.9902 15.7115 16.2237 15.4564 16.2569C15.4364 16.2595 15.4161 16.2607 15.3959 16.2606C15.1621 16.2602 14.9648 16.0864 14.9348 15.8544ZM16.7871 23.9982C16.7116 24.096 16.6001 24.1598 16.4775 24.1755H16.478C16.4579 24.1781 16.4377 24.1794 16.4174 24.1792C16.1835 24.1788 15.9862 24.0051 15.9563 23.773L15.1752 17.7177C15.1496 17.5506 15.2166 17.3828 15.3501 17.2792C15.4836 17.1756 15.6628 17.1525 15.8183 17.2188C15.9738 17.2851 16.0811 17.4304 16.0988 17.5984L16.8805 23.6538C16.8963 23.7764 16.8627 23.9003 16.7871 23.9982Z" fill="#465500"/>
<path d="M37.8197 23.5908C35.0605 23.1075 32.2681 22.8371 29.4674 22.7817C26.986 22.8204 24.5107 23.0399 22.0613 23.4385L21.935 24.4167C21.9134 24.5694 21.8723 24.7187 21.813 24.861C24.3447 24.4498 26.9029 24.2219 29.4675 24.1791C32.3287 24.235 35.1813 24.5112 38 25.0054C37.9524 24.6552 37.8896 24.1721 37.8197 23.5908Z" fill="#465500"/>
<path d="M16.1521 12.5441C16.9052 12.5303 17.6572 12.6068 18.3921 12.7719C18.9056 12.8785 19.4257 12.9502 19.9488 12.9866C20.4694 12.9992 20.9902 12.975 21.5074 12.9144C21.8293 12.8851 22.1572 12.8632 22.4888 12.8483L22.6495 11.6027H22.2475C21.9903 11.6027 21.7817 11.3942 21.7817 11.1369C21.7817 10.8797 21.9903 10.6711 22.2475 10.6711H23.645C23.9022 10.6711 24.1108 10.4626 24.1108 10.2053C24.1108 9.94808 23.9022 9.7395 23.645 9.7395H18.0554H12.4658C12.2086 9.7395 12 9.94803 12 10.2053C12 10.4625 12.2085 10.6711 12.4658 10.6711H20.3844C20.6417 10.6711 20.8502 10.8796 20.8502 11.1369C20.8502 11.3942 20.6417 11.6027 20.3844 11.6027H13.4612L13.6555 13.1087C13.7486 13.0807 13.8418 13.0556 13.935 13.0276C14.6521 12.7786 15.3964 12.6163 16.1521 12.5441Z" fill="#465500"/>
<path d="M18.5211 9.27358V8.80777H22.6164C22.4098 7.76474 21.8492 6.82518 21.0294 6.14804C20.9987 6.12828 20.9705 6.10479 20.9455 6.0782C20.2474 5.52792 19.4059 5.18999 18.521 5.10465V2.28658C18.521 1.51484 17.8954 0.88916 17.1236 0.88916H14.7947C14.5374 0.88916 14.3289 1.09769 14.3289 1.35497C14.3289 1.6122 14.5374 1.82077 14.7947 1.82077H17.1236C17.3809 1.82077 17.5895 2.0293 17.5895 2.28658V5.10465C15.5554 5.29703 13.8896 6.80327 13.4941 8.80777H17.5895V9.27358C17.5895 9.53081 17.798 9.73939 18.0553 9.73939C18.3125 9.73939 18.5211 9.53086 18.5211 9.27358Z" fill="#465500"/>
</g>
</g>
<defs>
<clipPath id="clip0">
<rect width="25" height="25" fill="white" transform="translate(13)"/>
</clipPath>
<clipPath id="clip1">
<rect width="25" height="26" fill="white" transform="translate(13)"/>
</clipPath>
</defs>
</svg>
