<svg width="51" height="45" viewBox="0 0 51 45" fill="none" xmlns="http://www.w3.org/2000/svg">
<path d="M13.441 37.996C13.9323 38.128 14.3063 38.3553 14.563 38.678C14.8197 38.9933 14.948 39.3893 14.948 39.866C14.948 40.5407 14.6987 41.065 14.2 41.439C13.7013 41.813 12.979 42 12.033 42H8.38099V34.3H11.824C12.6893 34.3 13.364 34.4723 13.848 34.817C14.332 35.1617 14.574 35.6493 14.574 36.28C14.574 36.6833 14.475 37.0317 14.277 37.325C14.0863 37.6183 13.8077 37.842 13.441 37.996ZM9.78899 37.589H11.703C12.165 37.589 12.517 37.4973 12.759 37.314C13.001 37.1307 13.122 36.8593 13.122 36.5C13.122 36.1407 13.001 35.8693 12.759 35.686C12.517 35.4953 12.165 35.4 11.703 35.4H9.78899V37.589ZM11.989 40.9C13.001 40.9 13.507 40.5187 13.507 39.756C13.507 39.008 13.001 38.634 11.989 38.634H9.78899V40.9H11.989ZM19.041 42.077C18.447 42.077 17.9117 41.9487 17.435 41.692C16.9584 41.4353 16.5844 41.0797 16.313 40.625C16.049 40.163 15.917 39.6423 15.917 39.063C15.917 38.4837 16.049 37.9667 16.313 37.512C16.5844 37.0573 16.9584 36.7017 17.435 36.445C17.9117 36.1883 18.447 36.06 19.041 36.06C19.6424 36.06 20.1814 36.1883 20.658 36.445C21.1347 36.7017 21.505 37.0573 21.769 37.512C22.0404 37.9667 22.176 38.4837 22.176 39.063C22.176 39.6423 22.0404 40.163 21.769 40.625C21.505 41.0797 21.1347 41.4353 20.658 41.692C20.1814 41.9487 19.6424 42.077 19.041 42.077ZM19.041 40.9C19.547 40.9 19.965 40.7313 20.295 40.394C20.625 40.0567 20.79 39.613 20.79 39.063C20.79 38.513 20.625 38.0693 20.295 37.732C19.965 37.3947 19.547 37.226 19.041 37.226C18.535 37.226 18.117 37.3947 17.787 37.732C17.4644 38.0693 17.303 38.513 17.303 39.063C17.303 39.613 17.4644 40.0567 17.787 40.394C18.117 40.7313 18.535 40.9 19.041 40.9ZM23.5344 36.126H24.9094V39.998L28.1544 36.126H29.4084V42H28.0334V38.128L24.7994 42H23.5344V36.126ZM26.3834 35.433C25.7894 35.433 25.3347 35.2973 25.0194 35.026C24.7114 34.7473 24.5537 34.344 24.5464 33.816H25.4594C25.4667 34.08 25.5474 34.289 25.7014 34.443C25.8627 34.597 26.0864 34.674 26.3724 34.674C26.651 34.674 26.871 34.597 27.0324 34.443C27.201 34.289 27.289 34.08 27.2964 33.816H28.2314C28.224 34.344 28.0627 34.7473 27.7474 35.026C27.432 35.2973 26.9774 35.433 26.3834 35.433ZM35.911 37.292H33.854V42H32.479V37.292H30.411V36.126H35.911V37.292ZM36.9084 36.126H38.2834V39.998L41.5284 36.126H42.7824V42H41.4074V38.128L38.1734 42H36.9084V36.126Z" fill="#465500"/>
<path d="M25.057 12.3369C26.7244 12.3369 28.1684 11.7571 29.3485 10.6128C30.5287 9.46855 31.1262 8.06945 31.1262 6.45227C31.1262 4.83509 30.5282 3.43599 29.3481 2.2917C28.1679 1.14742 26.7244 0.568115 25.057 0.568115C23.3896 0.568115 21.9456 1.14789 20.7659 2.29218C19.5862 3.43647 18.9863 4.83557 18.9863 6.45227C18.9863 8.06897 19.5848 9.4695 20.7644 10.6133C21.9441 11.7571 23.3901 12.3369 25.057 12.3369ZM35.6766 19.3548C35.6374 18.8371 35.5696 18.3218 35.4734 17.8112C35.3775 17.2859 35.2459 16.7673 35.0796 16.2589C34.9123 15.7557 34.6918 15.2707 34.4216 14.8116C34.1554 14.3491 33.8212 13.9266 33.4295 13.5575C33.0161 13.1813 32.5314 12.8863 32.0022 12.6891C31.4215 12.472 30.8036 12.3637 30.1813 12.3698C29.9239 12.3698 29.6753 12.4719 29.1945 12.7754C28.8992 12.9625 28.5547 13.1787 28.1674 13.4177C27.8371 13.6215 27.3898 13.8128 26.8386 13.9856C25.7827 14.3253 24.6418 14.3253 23.5859 13.9856C23.0342 13.8128 22.5874 13.622 22.2571 13.4182C21.8747 13.1796 21.5288 12.9649 21.2285 12.7754C20.7487 12.4719 20.4997 12.3698 20.2442 12.3698C19.6219 12.3636 19.0039 12.4721 18.4233 12.6895C17.8939 12.8863 17.4092 13.1811 16.996 13.5575C16.6062 13.9271 16.2737 14.3495 16.0088 14.8116C15.7385 15.2709 15.518 15.756 15.3508 16.2594C15.1847 16.7677 15.0531 17.2861 14.9571 17.8112C14.8607 18.322 14.7929 18.8374 14.7538 19.3553C14.7203 19.823 14.7046 20.3097 14.7046 20.7983C14.7046 22.0738 15.1229 23.106 15.9473 23.8676C16.7618 24.6182 17.8391 24.9999 19.1497 24.9999H31.2827C32.5928 24.9999 33.6701 24.6182 34.4846 23.8676C35.3095 23.1065 35.7273 22.0738 35.7273 20.7983C35.7273 20.3059 35.7101 19.8201 35.6766 19.3548Z" fill="#465500"/>
</svg>
