<svg width="25" height="25" viewBox="0 0 25 25" fill="none" xmlns="http://www.w3.org/2000/svg">
<path d="M12.057 12.3369C13.7244 12.3369 15.1684 11.7571 16.3485 10.6128C17.5287 9.46855 18.1262 8.06945 18.1262 6.45227C18.1262 4.83509 17.5282 3.43599 16.3481 2.2917C15.1679 1.14742 13.7244 0.568115 12.057 0.568115C10.3896 0.568115 8.94561 1.14789 7.76592 2.29218C6.58624 3.43647 5.9863 4.83557 5.9863 6.45227C5.9863 8.06897 6.58476 9.4695 7.76445 10.6133C8.94413 11.7571 10.3901 12.3369 12.057 12.3369ZM22.6766 19.3548C22.6374 18.8371 22.5696 18.3218 22.4734 17.8112C22.3775 17.2859 22.2459 16.7673 22.0796 16.2589C21.9123 15.7557 21.6918 15.2707 21.4216 14.8116C21.1554 14.3491 20.8212 13.9266 20.4295 13.5575C20.0161 13.1813 19.5314 12.8863 19.0022 12.6891C18.4215 12.472 17.8036 12.3637 17.1813 12.3698C16.9239 12.3698 16.6753 12.4719 16.1945 12.7754C15.8992 12.9625 15.5547 13.1787 15.1674 13.4177C14.8371 13.6215 14.3898 13.8128 13.8386 13.9856C12.7827 14.3253 11.6418 14.3253 10.5859 13.9856C10.0342 13.8128 9.58737 13.622 9.25714 13.4182C8.87474 13.1796 8.52876 12.9649 8.22855 12.7754C7.7487 12.4719 7.49967 12.3698 7.24424 12.3698C6.62185 12.3636 6.00392 12.4721 5.42328 12.6895C4.89395 12.8863 4.40919 13.1811 3.99605 13.5575C3.60625 13.9271 3.27371 14.3495 3.00879 14.8116C2.7385 15.2709 2.51799 15.756 2.35078 16.2594C2.18467 16.7677 2.05314 17.2861 1.95706 17.8112C1.86075 18.322 1.7929 18.8374 1.7538 19.3553C1.72034 19.823 1.70459 20.3097 1.70459 20.7983C1.70459 22.0738 2.12292 23.106 2.94727 23.8676C3.76178 24.6182 4.8391 24.9999 6.1497 24.9999H18.2827C19.5928 24.9999 20.6701 24.6182 21.4846 23.8676C22.3095 23.1065 22.7273 22.0738 22.7273 20.7983C22.7273 20.3059 22.7101 19.8201 22.6766 19.3548Z" fill="#465500"/>
</svg>
