<svg width="51" height="45" viewBox="0 0 51 45" fill="none" xmlns="http://www.w3.org/2000/svg">
<path d="M16.1896 42L16.1786 36.896L13.6486 41.12H13.0106L10.4806 36.962V42H9.12757V34.3H10.3046L13.3516 39.393L16.3656 34.3H17.5316L17.5536 42H16.1896ZM25.0544 39.096C25.0544 39.1913 25.047 39.327 25.0324 39.503H20.4234C20.504 39.9357 20.713 40.2803 21.0504 40.537C21.395 40.7863 21.8204 40.911 22.3264 40.911C22.9717 40.911 23.5034 40.6983 23.9214 40.273L24.6584 41.12C24.3944 41.4353 24.0607 41.6737 23.6574 41.835C23.254 41.9963 22.7994 42.077 22.2934 42.077C21.648 42.077 21.0797 41.9487 20.5884 41.692C20.097 41.4353 19.7157 41.0797 19.4444 40.625C19.1804 40.163 19.0484 39.6423 19.0484 39.063C19.0484 38.491 19.1767 37.9777 19.4334 37.523C19.6974 37.061 20.0604 36.7017 20.5224 36.445C20.9844 36.1883 21.505 36.06 22.0844 36.06C22.6564 36.06 23.166 36.1883 23.6134 36.445C24.068 36.6943 24.42 37.05 24.6694 37.512C24.926 37.9667 25.0544 38.4947 25.0544 39.096ZM22.0844 37.16C21.6444 37.16 21.2704 37.292 20.9624 37.556C20.6617 37.8127 20.4784 38.1573 20.4124 38.59H23.7454C23.6867 38.1647 23.507 37.82 23.2064 37.556C22.9057 37.292 22.5317 37.16 22.0844 37.16ZM26.5583 36.126H27.9333V38.513H30.8923V36.126H32.2673V42H30.8923V39.679H27.9333V42H26.5583V36.126ZM39.478 36.06C40.0647 36.06 40.589 36.1883 41.051 36.445C41.513 36.6943 41.876 37.05 42.14 37.512C42.404 37.9667 42.536 38.4837 42.536 39.063C42.536 39.6423 42.404 40.163 42.14 40.625C41.876 41.0797 41.513 41.4353 41.051 41.692C40.589 41.9487 40.0647 42.077 39.478 42.077C38.9647 42.077 38.4954 41.978 38.07 41.78C37.6447 41.5747 37.2927 41.2887 37.014 40.922C36.7354 40.548 36.5557 40.1227 36.475 39.646H35.485V42H34.11V36.126H35.485V38.403H36.497C36.585 37.941 36.7684 37.534 37.047 37.182C37.3257 36.8227 37.674 36.5477 38.092 36.357C38.51 36.159 38.972 36.06 39.478 36.06ZM39.478 40.911C39.8007 40.911 40.0904 40.8377 40.347 40.691C40.6037 40.537 40.8054 40.3207 40.952 40.042C41.0987 39.756 41.172 39.4297 41.172 39.063C41.172 38.5057 41.0107 38.062 40.688 37.732C40.3727 37.3947 39.9694 37.226 39.478 37.226C38.9867 37.226 38.5834 37.3947 38.268 37.732C37.9527 38.062 37.795 38.5057 37.795 39.063C37.795 39.6203 37.9527 40.0677 38.268 40.405C38.5907 40.7423 38.994 40.911 39.478 40.911Z" fill="#465500"/>
<g clip-path="url(#clip0)">
<path d="M25.6275 11.2045H25.3416C24.531 11.2047 23.7537 11.5078 23.1805 12.0473C22.6073 12.5868 22.2851 13.3185 22.2848 14.0815H28.6817C28.6817 13.3188 28.36 12.5873 27.7873 12.0478C27.2146 11.5084 26.4377 11.205 25.6275 11.2045ZM25.6275 11.2045H25.3416C24.531 11.2047 23.7537 11.5078 23.1805 12.0473C22.6073 12.5868 22.2851 13.3185 22.2848 14.0815H28.6817C28.6817 13.3188 28.36 12.5873 27.7873 12.0478C27.2146 11.5084 26.4377 11.205 25.6275 11.2045ZM31.7471 3.69891H27.1037V2.15522C27.1035 1.90074 27.0383 1.65003 26.9135 1.42426C26.7888 1.1985 26.6081 1.0043 26.3869 0.858071C26.1656 0.711843 25.9102 0.617874 25.6423 0.5841C25.3743 0.550326 25.1017 0.577737 24.8473 0.664019L16.8668 3.37299C16.5857 3.4685 16.3428 3.64327 16.1711 3.87349C15.9993 4.10371 15.9072 4.37818 15.9072 4.65948V23.6471C15.9072 24.006 16.0587 24.3502 16.3283 24.604C16.5979 24.8578 16.9636 25.0004 17.3449 25.0004H31.7471C32.6344 25.0004 33.4854 24.6686 34.1128 24.078C34.7403 23.4873 35.0928 22.6863 35.0928 21.851V6.84832C35.0928 6.01305 34.7403 5.21198 34.1128 4.62135C33.4854 4.03072 32.6344 3.69891 31.7471 3.69891ZM25.4181 2.15522V3.69891H20.8614L25.4181 2.15522ZM28.6817 17.9266H22.3137C22.207 17.9292 22.1009 17.9116 22.0015 17.8749C21.9021 17.8382 21.8115 17.7831 21.7351 17.713C21.6587 17.6428 21.598 17.559 21.5565 17.4664C21.515 17.3738 21.4937 17.2744 21.4937 17.1739C21.4937 17.0734 21.515 16.9739 21.5565 16.8813C21.598 16.7888 21.6587 16.7049 21.7351 16.6348C21.8115 16.5646 21.9021 16.5096 22.0015 16.4729C22.1009 16.4362 22.207 16.4186 22.3137 16.4211H28.6817C28.7884 16.4186 28.8946 16.4362 28.994 16.4729C29.0933 16.5096 29.1839 16.5646 29.2603 16.6348C29.3367 16.7049 29.3975 16.7888 29.4389 16.8813C29.4804 16.9739 29.5018 17.0734 29.5018 17.1739C29.5018 17.2744 29.4804 17.3738 29.4389 17.4664C29.3975 17.559 29.3367 17.6428 29.2603 17.713C29.1839 17.7831 29.0933 17.8382 28.994 17.8749C28.8946 17.9116 28.7884 17.9292 28.6817 17.9266ZM30.824 15.5884H20.1715C19.9593 15.5884 19.7559 15.5091 19.6058 15.3679C19.4558 15.2267 19.3715 15.0351 19.3715 14.8354C19.3715 14.6357 19.4558 14.4442 19.6058 14.303C19.7559 14.1618 19.9593 14.0824 20.1715 14.0824H20.6855C20.6848 13.0266 21.0889 12.006 21.8236 11.2082C22.5583 10.4105 23.5742 9.88913 24.6846 9.74006V9.08011C24.6846 8.88041 24.7689 8.68888 24.9189 8.54766C25.0689 8.40645 25.2724 8.32712 25.4845 8.32712C25.6967 8.32712 25.9002 8.40645 26.0502 8.54766C26.2002 8.68888 26.2845 8.88041 26.2845 9.08011V9.74149C27.395 9.89019 28.4112 10.4114 29.146 11.2093C29.8808 12.0071 30.2847 13.0279 30.2836 14.0839H30.826C31.0381 14.0839 31.2416 14.1632 31.3916 14.3044C31.5416 14.4456 31.6259 14.6372 31.6259 14.8369C31.6259 15.0366 31.5416 15.2281 31.3916 15.3693C31.2416 15.5105 31.0381 15.5899 30.826 15.5899L30.824 15.5884ZM25.6275 11.2045H25.3416C24.531 11.2047 23.7537 11.5078 23.1805 12.0473C22.6073 12.5868 22.2851 13.3185 22.2848 14.0815H28.6817C28.6817 13.3188 28.36 12.5873 27.7873 12.0478C27.2146 11.5084 26.4377 11.205 25.6275 11.2045Z" fill="#465500"/>
</g>
<defs>
<clipPath id="clip0">
<rect width="25" height="25" fill="white" transform="translate(13)"/>
</clipPath>
</defs>
</svg>
