<svg width="25" height="25" viewBox="0 0 25 25" fill="none" xmlns="http://www.w3.org/2000/svg">
<g clip-path="url(#clip0)">
<path d="M12.6275 11.2045H12.3416C11.531 11.2047 10.7537 11.5078 10.1805 12.0473C9.60725 12.5868 9.2851 13.3185 9.28483 14.0815H15.6817C15.6817 13.3188 15.36 12.5873 14.7873 12.0478C14.2146 11.5084 13.4377 11.205 12.6275 11.2045ZM12.6275 11.2045H12.3416C11.531 11.2047 10.7537 11.5078 10.1805 12.0473C9.60725 12.5868 9.2851 13.3185 9.28483 14.0815H15.6817C15.6817 13.3188 15.36 12.5873 14.7873 12.0478C14.2146 11.5084 13.4377 11.205 12.6275 11.2045ZM18.7471 3.69891H14.1037V2.15522C14.1035 1.90074 14.0383 1.65003 13.9135 1.42426C13.7888 1.1985 13.6081 1.0043 13.3869 0.858071C13.1656 0.711843 12.9102 0.617874 12.6423 0.5841C12.3743 0.550326 12.1017 0.577737 11.8473 0.664019L3.86683 3.37299C3.58575 3.4685 3.34278 3.64327 3.17106 3.87349C2.99933 4.10371 2.9072 4.37818 2.90723 4.65948L2.90723 23.6471C2.90723 24.006 3.05869 24.3502 3.3283 24.604C3.59791 24.8578 3.96358 25.0004 4.34486 25.0004H18.7471C19.6344 25.0004 20.4854 24.6686 21.1128 24.078C21.7403 23.4873 22.0928 22.6863 22.0928 21.851V6.84832C22.0928 6.01305 21.7403 5.21198 21.1128 4.62135C20.4854 4.03072 19.6344 3.69891 18.7471 3.69891ZM12.4181 2.15522V3.69891H7.86139L12.4181 2.15522ZM15.6817 17.9266H9.31373C9.20702 17.9292 9.10085 17.9116 9.00148 17.8749C8.90211 17.8382 8.81155 17.7831 8.73513 17.713C8.6587 17.6428 8.59797 17.559 8.5565 17.4664C8.51503 17.3738 8.49367 17.2744 8.49367 17.1739C8.49367 17.0734 8.51503 16.9739 8.5565 16.8813C8.59797 16.7888 8.6587 16.7049 8.73513 16.6348C8.81155 16.5646 8.90211 16.5096 9.00148 16.4729C9.10085 16.4362 9.20702 16.4186 9.31373 16.4211H15.6817C15.7884 16.4186 15.8946 16.4362 15.994 16.4729C16.0933 16.5096 16.1839 16.5646 16.2603 16.6348C16.3367 16.7049 16.3975 16.7888 16.4389 16.8813C16.4804 16.9739 16.5018 17.0734 16.5018 17.1739C16.5018 17.2744 16.4804 17.3738 16.4389 17.4664C16.3975 17.559 16.3367 17.6428 16.2603 17.713C16.1839 17.7831 16.0933 17.8382 15.994 17.8749C15.8946 17.9116 15.7884 17.9292 15.6817 17.9266ZM17.824 15.5884H7.17147C6.95932 15.5884 6.75585 15.5091 6.60584 15.3679C6.45582 15.2267 6.37154 15.0351 6.37154 14.8354C6.37154 14.6357 6.45582 14.4442 6.60584 14.303C6.75585 14.1618 6.95932 14.0824 7.17147 14.0824H7.68549C7.68475 13.0266 8.08888 12.006 8.82359 11.2082C9.5583 10.4105 10.5742 9.88913 11.6846 9.74006V9.08011C11.6846 8.88041 11.7689 8.68888 11.9189 8.54766C12.0689 8.40645 12.2724 8.32712 12.4845 8.32712C12.6967 8.32712 12.9002 8.40645 13.0502 8.54766C13.2002 8.68888 13.2845 8.88041 13.2845 9.08011V9.74149C14.395 9.89019 15.4112 10.4114 16.146 11.2093C16.8808 12.0071 17.2847 13.0279 17.2836 14.0839H17.826C18.0381 14.0839 18.2416 14.1632 18.3916 14.3044C18.5416 14.4456 18.6259 14.6372 18.6259 14.8369C18.6259 15.0366 18.5416 15.2281 18.3916 15.3693C18.2416 15.5105 18.0381 15.5899 17.826 15.5899L17.824 15.5884ZM12.6275 11.2045H12.3416C11.531 11.2047 10.7537 11.5078 10.1805 12.0473C9.60725 12.5868 9.2851 13.3185 9.28483 14.0815H15.6817C15.6817 13.3188 15.36 12.5873 14.7873 12.0478C14.2146 11.5084 13.4377 11.205 12.6275 11.2045Z" fill="#465500"/>
</g>
<defs>
<clipPath id="clip0">
<rect width="25" height="25" fill="white"/>
</clipPath>
</defs>
</svg>
