<svg xmlns="http://www.w3.org/2000/svg" viewBox="0 0 589.84 512"><g id="Layer_2" data-name="Layer 2"><g id="Layer_1-2" data-name="Layer 1"><path d="M475.8,143.15V77.08C475.8,34.59,441.89,0,399.4,0H191.12A77.18,77.18,0,0,0,114,77.08v66.05H33.54A33.55,33.55,0,0,0,0,176.68v72.91a33.53,33.53,0,0,0,33.54,33.54h10L80.19,484.47a33.54,33.54,0,0,0,33,27.53H477.35a33.55,33.55,0,0,0,33-27.54L547,283.13h9.33a33.53,33.53,0,0,0,33.54-33.54V176.68a33.55,33.55,0,0,0-33.54-33.55l-80.5,0ZM176.17,77.08a15.14,15.14,0,0,1,15-14.94H399.44c8.09,0,14.25,6.83,14.25,14.94v66.05H176.17Zm46.39,315.05a23.2,23.2,0,1,1-46.39,0V264a23.2,23.2,0,1,1,46.39,0Zm96,0a23.21,23.21,0,1,1-46.41,0V264a23.21,23.21,0,1,1,46.41,0Zm96,0a23.2,23.2,0,1,1-46.4,0V264a23.2,23.2,0,1,1,46.4,0Z"/></g></g></svg>