<?xml version="1.0" encoding="utf-8"?>
<!-- Generator: Adobe Illustrator 22.0.0, SVG Export Plug-In . SVG Version: 6.00 Build 0)  -->
<svg version="1.1"
	 id="svg53" xmlns:cc="http://creativecommons.org/ns#" xmlns:dc="http://purl.org/dc/elements/1.1/" xmlns:rdf="http://www.w3.org/1999/02/22-rdf-syntax-ns#" xmlns:svg="http://www.w3.org/2000/svg"
	 xmlns="http://www.w3.org/2000/svg" xmlns:xlink="http://www.w3.org/1999/xlink" x="0px" y="0px" viewBox="0 0 380.4 94.1"
	 style="enable-background:new 0 0 380.4 94.1;" xml:space="preserve">
<style type="text/css">
	.st0{fill:#1B1918;}
	.st1{fill:#E30016;}
</style>
<g id="Layer1000">
	<path id="path2" class="st0" d="M189.1,25.7c-0.1,0.7-0.1,3.1-0.1,3.9c-0.1,2.3-0.2,5.1,0.4,7.5c1.1,4.6,6.7,6.4,10.6,4.4
		c2-1.1,3.8-2.8,4.2-4.8c0.6-2.1-1.7-2.2-2.5-0.5c-0.9,1.7-2.7,3.5-4.7,3.2c-0.8-0.1-1.4-0.5-1.8-1.1c-0.7-1-0.7-2.4-0.6-3.7
		c0.1-2,0.1-5,0.2-6.8v-2.1L189.1,25.7z"/>
	<path id="path4" class="st0" d="M109.7,58.9h9.8c0.5,0,0.8-0.2,0.8-0.8v-0.2c0-1-0.8-0.9-1.5-0.9c-0.6-0.1-1-0.6-1-1.5V19.8v-2.2
		v-1c0-0.6-0.4-0.8-0.8-0.8c-2.2-0.1-6.1-0.4-8,0.4c-0.2,0.1-0.3,0.2-0.4,0.3c-0.4,0.3-0.5,1.3-0.3,1.8c0.2,0.3,0.6,0.3,1,0.1
		c1.8-0.8,3.1-0.4,3.1,1.1v36c0,0.9-0.7,1.4-1.4,1.6c-0.4,0.1-0.9,0.2-1.3,0.2c-0.5,0.1-0.7,0.2-0.7,0.8v0.2
		C108.9,58.8,109.3,58.9,109.7,58.9L109.7,58.9z"/>
	<path id="path6" class="st0" d="M122.9,37.3c1.1,2.2,3.3,2.6,5.6,2c4.3-1.1,6.7-5.8,6.8-10.5c0.1-6.1-3.2-9.8-8.4-9.8
		c-3.6,0-6.9,2-8.9,4.9c-0.2,0.3-0.4,0.9-0.8,1.2c-0.5,0.6-1.7,0.5-1.7-0.4c0-0.2,0.1-0.5,0.2-0.8c0.3-1.1,0.9-2,1.7-2.8
		c2.6-2.7,6.3-5.5,9.9-5.5c2.9,0,6,0.4,8.4,1.8c4.2,2.5,5.9,7.5,5.6,12.4c-0.4,6.7-4.3,11.1-9.8,12.5c-3.4,1-8.3,0.4-10.6-2.7
		c-0.5-0.6-1.1-1.7-1.2-2.7c-0.2-1.7,1.4-2.6,2.5-1.1C122.4,36.3,122.7,36.9,122.9,37.3L122.9,37.3z"/>
	<path id="path8" class="st0" d="M160.1,25.7c0.3-1.4,1-3.2,1.9-4.2c1.2-1.3,3.1-2,4.4-1.9c1.7,0.1,2.8,1.9,2.7,5.4
		c-0.2,4.6,0.3,11.3,6.4,11.2c5.5-0.1,10.1-3.4,13.2-7.8c1.5-2.1,2.6-4.3,3-5.9c0.5-2.1-1.6-1.9-2.3-0.1c-1.1,3.2-9.7,13.7-13.4,8.4
		c-0.4-0.5-0.6-1.1-0.8-1.7c-0.6-2.3-0.2-5.1-0.3-7.6c-0.3-3.7-2.6-6.1-6.6-6c-1.7,0.1-3.4,0.8-4.9,1.9c-2.7,2-4.9,5-5.6,7.1
		C156.8,27.6,159.2,29.7,160.1,25.7z"/>
	<path id="path10" class="st0" d="M194.8,26v-6.7v-1.5v-0.7c0-1.4,0-1.8-1.5-1.8c-2.3-0.1-5.6-0.3-7.3,0.5c-0.2,0.1-0.3,0.2-0.4,0.3
		c-0.4,0.3-0.5,1.3-0.3,1.8c0.2,0.3,0.5,0.3,1,0.1c1.8-0.8,3.1-0.4,3.1,1.1v7H194.8z"/>
	<path id="path12" class="st0" d="M247.7,25.7c0,0.7-0.1,3.1-0.1,3.9c-0.1,2.3-0.2,5.1,0.4,7.5c1.1,4.6,6.7,6.4,10.6,4.4
		c2-1.1,3.7-2.8,4.2-4.8c0.5-2.1-1.7-2.2-2.6-0.5c-0.8,1.7-2.7,3.5-4.6,3.2c-0.8-0.1-1.4-0.5-1.8-1.1c-0.7-1-0.7-2.4-0.6-3.7
		c0.1-2,0.1-5,0.2-6.8v-2.1L247.7,25.7z"/>
	<path id="path14" class="st0" d="M222.3,21c1.1-2.3,3.3-2.3,4.4-1.1c0.9,0.9,0.9,2.6,1,3.8c0.3,3.9-0.4,7.7,0,11.6
		c0.2,1.7,0.6,3.4,1.3,4.7c0.9,1.8,2.5,3,5.2,3c5.5-0.1,10-3.4,13.1-7.7c1.5-2.2,2.6-4.4,3-6c0.6-2.1-1.6-1.9-2.2-0.1
		c-1.1,3.2-9.7,13.7-13.4,8.4c-0.4-0.5-0.6-1.1-0.8-1.7c-0.3-1.2-0.3-2.6-0.3-4c0-1.2,0.1-9.1,0-10.3c-0.3-3.7-2.7-6.1-6.6-6
		c-3,0.1-5.6,2-6.9,4.7C219.3,22.3,221.2,23.2,222.3,21L222.3,21z"/>
	<path id="path16" class="st0" d="M253.5,27.3V21v-1.5v-0.6c-0.1-1.4,0-1.8-1.5-1.8c-2.3-0.1-5.9-0.3-7.6,0.4
		c-0.2,0.1-0.3,0.2-0.4,0.3c-0.4,0.4-0.6,1.3-0.3,1.8c0.2,0.3,0.5,0.3,1,0.1c1.8-0.8,3.1-0.4,3.1,1.1v6.6H253.5z"/>
	<path id="path18" class="st0" d="M312.6,23.9V21v-1.5v-0.6c0-1.4,0-1.8-1.5-1.8c-2.3-0.1-5.6-0.3-7.3,0.4c-0.2,0.1-0.3,0.2-0.4,0.3
		c-0.4,0.4-0.5,1.3-0.3,1.8c0.2,0.3,0.5,0.3,1,0.1c1.8-0.8,3.1-0.4,3.1,1.1v5h-0.3c-0.1,0.7-0.1,3.1-0.1,3.9
		c-0.1,2.3-0.2,5.1,0.4,7.5c1.1,4.6,6.7,6.4,10.6,4.4c2-1.1,3.8-2.8,4.2-4.8c0.6-2.1-1.7-2.2-2.5-0.5c-0.9,1.7-2.7,3.5-4.7,3.2
		c-0.8-0.1-1.4-0.5-1.8-1.1c-0.7-1-0.7-2.4-0.6-3.7c0.1-1.6,0.1-3.6,0.2-5.3C312.6,27.5,312.6,25.6,312.6,23.9L312.6,23.9z"/>
	<path id="path20" class="st0" d="M284.1,42h9.8c0.5,0,0.8-0.2,0.8-0.8v-0.2c0-1-0.9-0.9-1.6-0.9c-0.6-0.1-1-0.6-1-1.5v-4.4
		c0.3,0.1,0.6,0.1,0.9,0.1c5.5-0.1,10.8-3.2,13.9-7.5c1.5-2.1,1.9-1.9,2.3-3.5c0.6-2.2-1.3-2.6-2-0.8c-1.1,3.2-10.5,10.5-13.6,6.6
		c-0.4-0.5-0.6-1.1-0.8-1.8v-0.1c-0.2-0.7-0.2-1.2-0.2-1.8c0-1.8,0-3.3-0.1-3.8c-0.3-3.7-2.4-6.1-6.3-6c-3,0.1-5.5,2-6.8,4.7
		c-1,2,1,2.9,2,0.6c1.2-2.3,3.3-2.3,4.4-1.1c0.9,0.9,0.9,2.6,0.9,3.8c0.1,1,0.1,1.8,0.1,2.8v12.2c0,0.9-0.8,1.4-1.5,1.6
		c-0.4,0.1-0.9,0.2-1.3,0.2c-0.5,0.1-0.6,0.2-0.6,0.8v0.1v0.2C283.4,41.9,283.7,42,284.1,42z"/>
	<path id="path22" class="st0" d="M365.1,25.7c-0.1,0.7-0.1,3.1-0.1,3.9c-0.1,2.3-0.2,5.1,0.4,7.5c1.1,4.6,6.7,6.4,10.6,4.4
		c2-1.1,3.7-2.8,4.2-4.8c0.1-0.2,0.1-0.4,0.1-0.6V36c0-1.5-1.9-1.3-2.6,0.2c-0.8,1.7-2.7,3.5-4.6,3.2c-0.8-0.1-1.5-0.5-1.8-1.1
		c-0.7-1-0.8-2.4-0.7-3.7c0.1-2,0.2-5,0.2-6.8v-2.1H365.1z"/>
	<path id="path24" class="st0" d="M339.7,21c1.1-2.3,3.3-2.3,4.4-1.1c0.9,0.9,0.9,2.6,1,3.8c0.2,3.9-0.4,7.7,0,11.6
		c0.2,1.7,0.6,3.4,1.3,4.7c1,1.8,2.6,3,5.3,3c5.5-0.1,10-3.4,13.1-7.7c1.5-2.2,2.6-4.4,3-6c0.6-2.1-1.6-1.9-2.2-0.1
		c-1.1,3.2-9.7,13.7-13.4,8.4c-0.3-0.5-0.6-1.1-0.8-1.7c-0.3-1.2-0.3-2.6-0.3-4c0.1-1.2,0.1-9.1,0-10.3c-0.3-3.7-2.6-6.1-6.5-6
		c-3,0.1-5.6,2-6.9,4.7C336.7,22.3,338.6,23.2,339.7,21L339.7,21z"/>
	<path id="path26" class="st0" d="M370.8,27.3V21v-1.5v-0.6c0-1.4,0-1.8-1.4-1.8c-2.3-0.1-6-0.3-7.7,0.4c-0.2,0.1-0.3,0.2-0.4,0.3
		c-0.3,0.4-0.5,1.3-0.3,1.8c0.2,0.3,0.6,0.3,1.1,0.1c1.8-0.8,3.1-0.4,3.1,1.1v6.6H370.8z"/>
	<path id="path28" class="st0" d="M48.7,60.6H50V0h-1.3V60.6z"/>
	<path id="path30" class="st0" d="M97.3,60.6h1.3V0h-1.3V60.6z"/>
	<path id="path32" class="st0" d="M151.8,60.6h1.3V0h-1.3V60.6z"/>
	<path id="path34" class="st0" d="M211.2,60.6h1.3V0h-1.3V60.6z"/>
	<path id="path36" class="st0" d="M270.1,60.6h1.3V0h-1.3V60.6z"/>
	<path id="path38" class="st0" d="M328.8,60.6h1.3V0h-1.3V60.6z"/>
	<path id="path40" class="st0" d="M35.3,37.5c-1.1,2.4-3.3,2.3-4.4,1.1c-0.9-0.9-0.9-2.6-0.9-3.8c-0.3-3.9,0.4-7.7-0.1-11.6
		c-0.2-1.7-0.6-3.4-1.3-4.7c-1-1.8-2.6-3-5.3-3c-5.5,0.1-10,3.4-13.1,7.7c-1.5,2.1-2.6,4.4-3,6c-0.5,2.1,1.6,1.9,2.2,0.1
		c1.1-3.2,9.7-13.7,13.4-8.4c0.3,0.5,0.6,1.1,0.8,1.7c0.3,1.2,0.3,2.6,0.3,4c-0.1,1.2-0.1,9.1,0,10.3c0.3,3.7,2.6,6.1,6.5,6
		c3-0.1,5.6-2,6.9-4.7C38.4,36.2,36.4,35.3,35.3,37.5L35.3,37.5z"/>
	<path id="path42" class="st0" d="M1.6,42.1h10.1c0.5,0,0.8-0.2,0.8-0.8v-0.2c0-1-0.8-0.8-1.6-0.9c-0.6-0.1-1-0.6-1-1.5V20.6v-1.5
		v-0.7c0-1.5,0-1.8-1.5-1.9c-2.3-0.1-5.7-0.3-7.5,0.5c-0.2,0.1-0.3,0.2-0.4,0.3C0.2,17.6,0,18.1,0,18.6v0.1c0,0.2,0.1,0.4,0.1,0.5
		c0.2,0.4,0.6,0.3,1.1,0.1c1.8-0.9,3.2-0.5,3.2,1.1v18.4c0,0.9-0.8,1.4-1.5,1.6c-0.4,0.1-0.9,0.2-1.4,0.2c-0.5,0.1-0.6,0.2-0.6,0.9
		v0.1v0.2C0.9,42,1.2,42.1,1.6,42.1z"/>
	<path id="path44" class="st0" d="M267.8,80.2v10c0,0.3-0.2,0.5-0.6,0.5h-1.7c-0.2,0-0.3-0.1-0.4-0.1c-0.1-0.1-0.2-0.2-0.2-0.4v-10
		h-3.7c-0.2,0-0.3,0-0.4-0.1c-0.1-0.1-0.1-0.2-0.1-0.4v-1.3c0-0.2,0-0.4,0.1-0.4c0.1-0.1,0.2-0.2,0.4-0.2h10.1
		c0.2,0,0.4,0.1,0.4,0.2c0.1,0.1,0.1,0.2,0.1,0.4v1.3c0,0.2,0,0.4-0.1,0.4c-0.1,0.1-0.2,0.1-0.4,0.1L267.8,80.2z M258.7,89.5
		c0.1,0.2,0.1,0.4,0,0.5c-0.1,0.1-0.2,0.2-0.4,0.3c-0.5,0.2-1.1,0.4-1.9,0.5c-0.8,0.1-1.5,0.2-2.1,0.2c-1.2,0-2.2-0.2-3-0.6
		c-0.8-0.3-1.3-0.9-1.7-1.4c-0.4-0.6-0.6-1.3-0.8-2.1c-0.2-0.8-0.2-1.7-0.2-2.6c0-0.8,0.1-1.6,0.2-2.4c0.1-0.8,0.4-1.5,0.8-2.1
		c0.4-0.6,1-1.1,1.7-1.5c0.8-0.4,1.7-0.6,2.9-0.6c0.3,0,0.6,0.1,1,0.1c0.3,0,0.7,0.1,1.1,0.1c0.4,0.1,0.7,0.1,1,0.2
		c0.4,0.1,0.7,0.2,1,0.3c0.3,0.2,0.4,0.4,0.4,0.7l-0.2,1.1c-0.1,0.2-0.2,0.3-0.3,0.3c-0.1,0.1-0.3,0.1-0.5,0
		c-0.6-0.1-1.1-0.1-1.7-0.2c-0.5-0.1-1.1-0.1-1.5-0.1c-1.1,0-1.8,0.3-2.3,0.9c-0.4,0.6-0.6,1.7-0.6,3.1c0,0.8,0.1,1.5,0.2,2
		c0.1,0.5,0.3,1,0.5,1.3c0.2,0.3,0.5,0.5,0.9,0.7c0.4,0.1,0.8,0.2,1.3,0.2c0.4,0,1-0.1,1.6-0.1c0.6,0,1.2-0.1,1.8-0.2
		c0.2-0.1,0.3-0.1,0.4,0c0.1,0.1,0.2,0.2,0.2,0.4L258.7,89.5z M228.4,90.2c0,0.4-0.2,0.5-0.5,0.5H226c-0.3,0-0.5-0.2-0.5-0.5l0.1-10
		H220v10c0,0.2-0.1,0.3-0.1,0.4c-0.1,0.1-0.2,0.2-0.4,0.2h-1.9c-0.4,0-0.5-0.2-0.5-0.5V78.4c0-0.4,0.2-0.5,0.5-0.5h10.3
		c0.2,0,0.3,0.1,0.4,0.1c0.1,0.1,0.1,0.2,0.1,0.4L228.4,90.2z M241.5,89.3c-0.7,0.5-1.4,0.9-2.2,1.2c-0.8,0.3-1.7,0.5-2.6,0.5
		c-0.7,0-1.3-0.1-1.8-0.3c-0.4-0.2-0.8-0.5-1.1-0.8c-0.3-0.3-0.5-0.7-0.6-1.2c-0.1-0.4-0.2-1-0.2-1.5c-0.1-1.6,0.4-2.7,1.2-3.4
		c0.9-0.7,2.1-1,3.8-1h3.4v-0.7c0-0.4-0.1-0.7-0.2-1c-0.1-0.3-0.2-0.5-0.4-0.7c-0.2-0.2-0.5-0.3-0.8-0.3c-0.4-0.1-0.8-0.1-1.3-0.1
		h-0.8c-0.3,0-0.6,0.1-1,0.1c-0.3,0-0.6,0.1-1,0.1c-0.3,0.1-0.6,0.1-0.9,0.1c-0.3,0.1-0.4,0.1-0.5,0c-0.1,0-0.2-0.1-0.2-0.3l-0.2-1
		c-0.1-0.2-0.1-0.3,0.1-0.4c0.1-0.1,0.2-0.3,0.5-0.4c0.3-0.1,0.6-0.2,1-0.3c0.4-0.1,0.8-0.1,1.2-0.2c0.4-0.1,0.8-0.1,1.2-0.1
		c0.4,0,0.8-0.1,1.1-0.1c1.1,0,2,0.2,2.7,0.4c0.6,0.2,1.2,0.5,1.5,1c0.4,0.4,0.6,0.9,0.7,1.5c0.1,0.6,0.2,1.2,0.2,2v5.1
		c0,1,0.2,1.2,1.1,1.7c0.3,0.2,0.3,0.4,0.2,0.7l-0.3,0.7c-0.1,0.2-0.3,0.4-0.5,0.4c-0.2,0.1-0.5,0-0.8-0.1c-1-0.3-1.9-0.6-2.4-1.6
		C241.6,89.3,241.6,89.2,241.5,89.3L241.5,89.3z M241.4,84.9h-3.2c-0.6,0-1.2,0.2-1.6,0.5c-0.4,0.3-0.6,0.9-0.6,1.8
		c0,0.5,0.1,1,0.4,1.2c0.2,0.2,0.6,0.3,1.2,0.3c0.3,0,0.6-0.1,1-0.1c0.3-0.1,0.6-0.2,1-0.3c0.4-0.2,0.7-0.3,1-0.4
		c0.3-0.2,0.6-0.3,0.9-0.4V84.9z M281.6,89.3c-0.6,0.5-1.4,0.9-2.2,1.2c-0.9,0.3-1.7,0.5-2.6,0.5c-0.7,0-1.3-0.1-1.8-0.3
		c-0.4-0.2-0.8-0.5-1.1-0.8c-0.3-0.3-0.5-0.7-0.6-1.2c-0.1-0.4-0.2-1-0.2-1.5c0-1.6,0.4-2.7,1.2-3.4c0.9-0.7,2.1-1,3.8-1h3.4v-0.7
		c0-0.4-0.1-0.7-0.1-1c-0.1-0.3-0.2-0.5-0.4-0.7c-0.2-0.2-0.5-0.3-0.9-0.3c-0.4-0.1-0.8-0.1-1.3-0.1H278c-0.3,0-0.6,0.1-0.9,0.1
		c-0.3,0-0.6,0.1-1,0.1c-0.3,0.1-0.6,0.1-0.9,0.1c-0.3,0.1-0.4,0.1-0.5,0c-0.1,0-0.2-0.1-0.2-0.3l-0.2-1c-0.1-0.2,0-0.3,0.1-0.4
		c0.1-0.1,0.3-0.3,0.5-0.4c0.3-0.1,0.6-0.2,1-0.3c0.4-0.1,0.8-0.1,1.2-0.2c0.4-0.1,0.8-0.1,1.2-0.1c0.4,0,0.8-0.1,1.1-0.1
		c1.2,0,2,0.2,2.7,0.4c0.7,0.2,1.2,0.5,1.6,1c0.3,0.4,0.6,0.9,0.7,1.5c0.1,0.6,0.1,1.2,0.1,2v5.1c0,1,0.2,1.2,1.1,1.7
		c0.3,0.2,0.3,0.4,0.2,0.7l-0.3,0.7c-0.1,0.2-0.3,0.4-0.5,0.4c-0.2,0.1-0.4,0-0.7-0.1c-1-0.3-2-0.6-2.4-1.6
		C281.7,89.3,281.7,89.2,281.6,89.3L281.6,89.3z M281.5,84.9h-3.2c-0.7,0-1.2,0.2-1.6,0.5c-0.4,0.3-0.6,0.9-0.6,1.8
		c0,0.5,0.2,1,0.4,1.2c0.2,0.2,0.6,0.3,1.3,0.3c0.3,0,0.6-0.1,0.9-0.1c0.3-0.1,0.6-0.2,1-0.3c0.3-0.2,0.6-0.3,1-0.4
		c0.3-0.2,0.6-0.3,0.8-0.4L281.5,84.9z"/>
	<path id="path46" class="st0" d="M157.8,89.3c-0.6,0.5-1.4,0.9-2.2,1.2c-0.8,0.3-1.7,0.5-2.6,0.5c-0.7,0-1.3-0.1-1.7-0.3
		c-0.5-0.2-0.9-0.5-1.1-0.8c-0.3-0.3-0.5-0.7-0.6-1.2c-0.1-0.4-0.2-1-0.2-1.5c0-1.6,0.4-2.7,1.2-3.4c0.9-0.6,2.1-1,3.8-1h3.4v-0.7
		c0-0.4-0.1-0.7-0.1-1c-0.1-0.3-0.2-0.5-0.4-0.7c-0.2-0.2-0.5-0.3-0.9-0.3c-0.4-0.1-0.8-0.1-1.3-0.1h-0.8c-0.3,0-0.6,0.1-0.9,0.1
		c-0.3,0-0.6,0.1-1,0.1c-0.3,0.1-0.6,0.1-0.9,0.1c-0.3,0.1-0.4,0.1-0.5,0c-0.1,0-0.2-0.1-0.2-0.3l-0.2-1c-0.1-0.2,0-0.3,0.1-0.4
		c0.1-0.1,0.3-0.3,0.5-0.4c0.3-0.1,0.6-0.2,1-0.3c0.4-0.1,0.8-0.1,1.2-0.2c0.4-0.1,0.8-0.1,1.2-0.1c0.4,0,0.8-0.1,1.1-0.1
		c1.2,0,2,0.2,2.7,0.4c0.7,0.2,1.2,0.5,1.6,1c0.3,0.4,0.6,0.9,0.7,1.5c0.1,0.6,0.1,1.2,0.1,2v5.1c0,1,0.2,1.2,1.1,1.7
		c0.3,0.2,0.3,0.4,0.2,0.7l-0.3,0.7c-0.1,0.2-0.3,0.4-0.5,0.4c-0.2,0.1-0.4,0-0.7-0.1c-1-0.3-2-0.6-2.4-1.6
		C157.9,89.3,157.9,89.2,157.8,89.3L157.8,89.3z M157.7,84.9h-3.2c-0.7,0-1.2,0.2-1.6,0.5c-0.4,0.3-0.6,0.9-0.6,1.8
		c0,0.5,0.2,1,0.4,1.2c0.2,0.2,0.6,0.3,1.3,0.3c0.3,0,0.6-0.1,0.9-0.1c0.3-0.1,0.6-0.2,1-0.3c0.3-0.2,0.6-0.3,1-0.4
		c0.3-0.2,0.6-0.3,0.9-0.4V84.9z M141.2,78.4c0-0.4,0.2-0.6,0.6-0.6h1.7c0.2,0,0.3,0.1,0.4,0.1c0.1,0.1,0.2,0.2,0.2,0.5v9.9l1,0
		c0.2,0.1,0.4,0.1,0.4,0.2c0.1,0.1,0.1,0.3,0.1,0.5l-0.3,4.4c0,0.3-0.1,0.5-0.1,0.5c-0.1,0.1-0.2,0.1-0.3,0.1h-1.5
		c-0.2,0-0.3-0.1-0.4-0.1c-0.1-0.1-0.1-0.2-0.1-0.5l-0.1-2.7h-9c-0.4,0-0.6-0.2-0.6-0.6V78.4c0-0.4,0.2-0.6,0.6-0.6h1.7
		c0.4,0,0.6,0.2,0.6,0.6v9.9h5.2V78.4z M124.6,78.4c0-0.4,0.2-0.6,0.6-0.6h1.7c0.2,0,0.3,0.1,0.4,0.1c0.1,0.1,0.1,0.2,0.1,0.5
		l0.1,9.9l1,0c0.2,0.1,0.3,0.1,0.4,0.2c0.1,0.1,0.1,0.3,0,0.5l-0.3,4.4c0,0.3-0.1,0.5-0.1,0.5c-0.1,0.1-0.2,0.1-0.3,0.1h-1.5
		c-0.2,0-0.3-0.1-0.4-0.1c-0.1-0.1-0.1-0.2-0.2-0.5l-0.1-2.7h-9c-0.4,0-0.6-0.2-0.6-0.6V78.4c0-0.4,0.2-0.6,0.6-0.6h1.7
		c0.4,0,0.5,0.2,0.5,0.6v9.9h5.3V78.4z M100,78.4c0-0.2,0-0.3,0.1-0.4c0.1-0.1,0.2-0.2,0.4-0.2h1.7c0.2,0,0.4,0.1,0.5,0.2
		c0.1,0.1,0.1,0.3,0.1,0.4v7.7h0.1l3.4-4.7l2.4-3.1c0.1-0.1,0.2-0.3,0.3-0.3c0.1-0.1,0.3-0.2,0.5-0.2h1.4c0.2,0,0.4,0.1,0.4,0.2
		c0.1,0.1,0.2,0.2,0.2,0.4v11.8c0,0.4-0.2,0.6-0.6,0.6h-1.7c-0.4,0-0.6-0.2-0.6-0.6v-8.1c-0.6,0.9-1.2,1.7-1.9,2.5
		c-0.6,0.8-1.2,1.7-1.8,2.5c-0.4,0.5-0.8,1-1.2,1.6c-0.4,0.5-0.8,1-1.2,1.6c-0.1,0.2-0.2,0.3-0.3,0.3c-0.2,0.1-0.3,0.2-0.6,0.2h-1.1
		c-0.2,0-0.4-0.1-0.4-0.2c-0.1-0.1-0.1-0.2-0.1-0.4V78.4z M95.1,90.2c0,0.4-0.2,0.5-0.5,0.5h-1.9c-0.3,0-0.5-0.2-0.5-0.5v-10h-5.5
		v10c0,0.2-0.1,0.3-0.1,0.4c-0.1,0.1-0.2,0.2-0.4,0.2h-1.9c-0.3,0-0.5-0.2-0.5-0.5V78.4c0-0.4,0.2-0.5,0.5-0.5h10.3
		c0.2,0,0.3,0.1,0.4,0.1c0.1,0.1,0.1,0.2,0.1,0.4V90.2z"/>
	<path id="path48" class="st1" d="M70.9,28.7c1.6,0.8,3.8,1.2,5.9,1c2.4-0.3,4.2-1.5,4.6-3.9c0.5-2.9-1.2-5.4-3.8-6.3
		c-1.5-0.5-3.1-0.6-4.9-0.2c-4.4,1.1-6.7,5.7-6.8,10.5c-0.1,6.1,3.4,10,8.6,10.3c3.1,0.2,5.4-0.9,7.5-2.7c3.1-2.7,3.5,1.2,0.2,3.5
		c-2.4,1.6-5.3,2.1-8.1,2.1c-6.2,0-12.6-3.3-14.2-9.7c-0.3-1.4-0.5-2.9-0.4-4.5c0.1-2,0.6-3.8,1.3-5.3c2.5-5.4,8.4-7.7,14.1-7.8
		c4.2,0,8.5,1.4,9.8,5.9c0.6,2.2,0.6,4.4-0.6,6.4c-0.4,0.7-0.9,1.3-1.5,1.8c-3.2,2.7-9.2,3.2-12.9,1.9
		C66.2,30.5,67.3,26.8,70.9,28.7L70.9,28.7z"/>
	<path id="path50" class="st1" d="M205.3,77.5c2.9-2.8,3.9-4.9,4.4-7c0.2-0.7-0.2-1.7-0.5-2c-0.6-0.4-2.2,0.4-1.9,2.1
		c-0.3,2.4-1.6,4.6-3,6.4C203.2,78.4,204.2,78.5,205.3,77.5L205.3,77.5z M203.8,81.4c1.1,1,0.7,2.4-0.1,3.7
		c-1.5,2.3-3.6,3.9-6.1,4.9c-4.2,1.7-8.9,2.2-13.3,0.5c-2.6-0.9-4.6-2.7-7.4-5.2c-1.3-1.2-3.4-2.6-5.5-2.9c-1.8-0.2-1-0.8,0.7-1.4
		c1.5-0.5,3.2-1,5.7,0c1.9,0.8,4.2,2,6.4,2.4h0.1c0.2,0.1,0.3,0.1,0.5,0.1c1.9,0.3,4.1,0.9,5.9,1.7c0.2,0.1,0.3,0,0.1-0.2
		c-0.3-0.2-0.5-0.4-0.8-0.7c-0.6-0.4-1.3-0.9-1.9-1.2c0.4-0.2,0.8-0.3,1.2-0.5c1.8,0.5,3.8,1.1,5.4,2c0.2,0.1,0.4,0.1,0.2-0.2
		c-0.2-0.2-0.4-0.4-0.6-0.6c-1-1-2-1.6-3.1-2.2c0.4-0.3,0.8-0.5,1.2-0.8c1.9,0.6,4.1,1.6,5.5,2.5c0.4,0.2,0.6,0.1,0.2-0.3
		c-1.1-1.1-2.7-2.4-4.4-3.2c0.3-0.3,0.6-0.5,0.9-0.8c1.7,0.5,3.7,1.3,5.6,2.4c0.4,0.2,0.5,0,0.3-0.3c-1.4-1.8-3.3-2.8-4.5-3.4h0.1
		c0.3-0.4,0.7-0.8,1.1-1.1c1.2-0.8,2.8-0.3,3.5,1C202.3,77.3,204.3,79.6,203.8,81.4L203.8,81.4z"/>
</g>
</svg>
